<svg width="79" height="25" viewBox="0 0 79 25" fill="none" xmlns="http://www.w3.org/2000/svg">
<path d="M14.4375 21.5469V24H3.0625V21.5469H14.4375ZM3.65625 1.25V24H0.640625V1.25H3.65625ZM34.375 11.9062V13.3438C34.375 15.0521 34.1615 16.5833 33.7344 17.9375C33.3073 19.2917 32.6927 20.4427 31.8906 21.3906C31.0885 22.3385 30.125 23.0625 29 23.5625C27.8854 24.0625 26.6354 24.3125 25.25 24.3125C23.9062 24.3125 22.6719 24.0625 21.5469 23.5625C20.4323 23.0625 19.4635 22.3385 18.6406 21.3906C17.8281 20.4427 17.1979 19.2917 16.75 17.9375C16.3021 16.5833 16.0781 15.0521 16.0781 13.3438V11.9062C16.0781 10.1979 16.2969 8.67188 16.7344 7.32812C17.1823 5.97396 17.8125 4.82292 18.625 3.875C19.4375 2.91667 20.401 2.1875 21.5156 1.6875C22.6406 1.1875 23.875 0.9375 25.2188 0.9375C26.6042 0.9375 27.8542 1.1875 28.9688 1.6875C30.0938 2.1875 31.0573 2.91667 31.8594 3.875C32.6719 4.82292 33.2917 5.97396 33.7188 7.32812C34.1562 8.67188 34.375 10.1979 34.375 11.9062ZM31.3906 13.3438V11.875C31.3906 10.5208 31.25 9.32292 30.9688 8.28125C30.6979 7.23958 30.2969 6.36458 29.7656 5.65625C29.2344 4.94792 28.5833 4.41146 27.8125 4.04688C27.0521 3.68229 26.1875 3.5 25.2188 3.5C24.2812 3.5 23.4323 3.68229 22.6719 4.04688C21.9219 4.41146 21.276 4.94792 20.7344 5.65625C20.2031 6.36458 19.7917 7.23958 19.5 8.28125C19.2083 9.32292 19.0625 10.5208 19.0625 11.875V13.3438C19.0625 14.7083 19.2083 15.9167 19.5 16.9688C19.7917 18.0104 20.2083 18.8906 20.75 19.6094C21.3021 20.3177 21.9531 20.8542 22.7031 21.2188C23.4635 21.5833 24.3125 21.7656 25.25 21.7656C26.2292 21.7656 27.099 21.5833 27.8594 21.2188C28.6198 20.8542 29.2604 20.3177 29.7812 19.6094C30.3125 18.8906 30.7135 18.0104 30.9844 16.9688C31.2552 15.9167 31.3906 14.7083 31.3906 13.3438ZM55.7031 12.6719V21C55.4219 21.4167 54.974 21.8854 54.3594 22.4062C53.7448 22.9167 52.8958 23.3646 51.8125 23.75C50.7396 24.125 49.3542 24.3125 47.6562 24.3125C46.2708 24.3125 44.9948 24.0729 43.8281 23.5938C42.6719 23.1042 41.6667 22.3958 40.8125 21.4688C39.9688 20.5312 39.3125 19.3958 38.8438 18.0625C38.3854 16.7188 38.1562 15.1979 38.1562 13.5V11.7344C38.1562 10.0365 38.3542 8.52083 38.75 7.1875C39.1562 5.85417 39.75 4.72396 40.5312 3.79688C41.3125 2.85938 42.2708 2.15104 43.4062 1.67188C44.5417 1.18229 45.8438 0.9375 47.3125 0.9375C49.0521 0.9375 50.5052 1.23958 51.6719 1.84375C52.849 2.4375 53.7656 3.26042 54.4219 4.3125C55.0885 5.36458 55.5156 6.5625 55.7031 7.90625H52.6875C52.5521 7.08333 52.2812 6.33333 51.875 5.65625C51.4792 4.97917 50.9115 4.4375 50.1719 4.03125C49.4323 3.61458 48.4792 3.40625 47.3125 3.40625C46.2604 3.40625 45.349 3.59896 44.5781 3.98438C43.8073 4.36979 43.1719 4.92188 42.6719 5.64062C42.1719 6.35938 41.7969 7.22917 41.5469 8.25C41.3073 9.27083 41.1875 10.4219 41.1875 11.7031V13.5C41.1875 14.8125 41.3385 15.9844 41.6406 17.0156C41.9531 18.0469 42.3958 18.9271 42.9688 19.6562C43.5417 20.375 44.224 20.9219 45.0156 21.2969C45.8177 21.6719 46.7031 21.8594 47.6719 21.8594C48.7448 21.8594 49.6146 21.7708 50.2812 21.5938C50.9479 21.4062 51.4688 21.1875 51.8438 20.9375C52.2188 20.6771 52.5052 20.4323 52.7031 20.2031V15.1094H47.4375V12.6719H55.7031ZM78.2188 11.9062V13.3438C78.2188 15.0521 78.0052 16.5833 77.5781 17.9375C77.151 19.2917 76.5365 20.4427 75.7344 21.3906C74.9323 22.3385 73.9688 23.0625 72.8438 23.5625C71.7292 24.0625 70.4792 24.3125 69.0938 24.3125C67.75 24.3125 66.5156 24.0625 65.3906 23.5625C64.276 23.0625 63.3073 22.3385 62.4844 21.3906C61.6719 20.4427 61.0417 19.2917 60.5938 17.9375C60.1458 16.5833 59.9219 15.0521 59.9219 13.3438V11.9062C59.9219 10.1979 60.1406 8.67188 60.5781 7.32812C61.026 5.97396 61.6562 4.82292 62.4688 3.875C63.2812 2.91667 64.2448 2.1875 65.3594 1.6875C66.4844 1.1875 67.7188 0.9375 69.0625 0.9375C70.4479 0.9375 71.6979 1.1875 72.8125 1.6875C73.9375 2.1875 74.901 2.91667 75.7031 3.875C76.5156 4.82292 77.1354 5.97396 77.5625 7.32812C78 8.67188 78.2188 10.1979 78.2188 11.9062ZM75.2344 13.3438V11.875C75.2344 10.5208 75.0938 9.32292 74.8125 8.28125C74.5417 7.23958 74.1406 6.36458 73.6094 5.65625C73.0781 4.94792 72.4271 4.41146 71.6562 4.04688C70.8958 3.68229 70.0312 3.5 69.0625 3.5C68.125 3.5 67.276 3.68229 66.5156 4.04688C65.7656 4.41146 65.1198 4.94792 64.5781 5.65625C64.0469 6.36458 63.6354 7.23958 63.3438 8.28125C63.0521 9.32292 62.9062 10.5208 62.9062 11.875V13.3438C62.9062 14.7083 63.0521 15.9167 63.3438 16.9688C63.6354 18.0104 64.0521 18.8906 64.5938 19.6094C65.1458 20.3177 65.7969 20.8542 66.5469 21.2188C67.3073 21.5833 68.1562 21.7656 69.0938 21.7656C70.0729 21.7656 70.9427 21.5833 71.7031 21.2188C72.4635 20.8542 73.1042 20.3177 73.625 19.6094C74.1562 18.8906 74.5573 18.0104 74.8281 16.9688C75.099 15.9167 75.2344 14.7083 75.2344 13.3438Z" fill="#303030"/>
</svg>
