<svg width="150" height="53" viewBox="0 0 150 53" fill="none" xmlns="http://www.w3.org/2000/svg">
<path d="M39.2441 0H13.8524C8.9525 0 6.50256 0 4.63775 0.96869C3.0663 1.785 1.785 3.0663 0.96869 4.63775C0 6.50256 0 8.9525 0 13.8524V39.0907C0 43.9905 0 46.4405 0.96869 48.3053C1.785 49.8767 3.0663 51.158 4.63775 51.9743C6.50256 52.943 8.9525 52.943 13.8524 52.943H39.2441C44.144 52.943 46.5939 52.943 48.4587 51.9743C50.0302 51.158 51.3115 49.8767 52.1278 48.3053C53.0965 46.4405 53.0965 43.9905 53.0965 39.0906V13.8524C53.0965 8.9525 53.0965 6.50256 52.1278 4.63775C51.3115 3.0663 50.0302 1.785 48.4587 0.96869C46.5939 0 44.144 0 39.2441 0Z" fill="#174BE6"/>
<path d="M21.7881 16.2513H19.022V18.963H21.7881V16.2513Z" fill="white"/>
<path d="M27.138 33.6111H13.6699V36.3773H27.138V33.6111Z" fill="white"/>
<path d="M39.1466 23.0183H25.5811V25.7845H39.1466V23.0183Z" fill="white"/>
<path d="M39.1466 16.2011H33.795C32.2678 16.2011 31.0288 17.4401 31.0288 18.9673V36.3759H33.795V19.9596C33.795 19.4118 34.2395 18.9673 34.7873 18.9673H39.1452V16.2011H39.1466Z" fill="white"/>
<path d="M19.023 20.2521C19.0222 20.2521 19.0216 20.2528 19.0216 20.2536C19.0001 20.2536 18.9786 20.2521 18.9571 20.2521H15.3047V23.0183H17.9777C18.5556 23.0183 19.023 23.4858 19.023 24.0637V36.3774H21.7892V23.0183C21.7878 21.4902 20.5496 20.2529 19.023 20.2521Z" fill="white"/>
<path d="M74.6908 23.4673H70.7158V31.5679C70.7158 32.305 70.8606 32.8284 71.1489 33.1367C71.4371 33.4464 71.8816 33.6056 72.4796 33.6157C73.0776 33.6257 73.8147 33.6114 74.6908 33.5712V35.9029C72.4194 36.2011 70.7545 36.0176 69.6991 35.3494C68.6423 34.6825 68.1145 33.4221 68.1145 31.5679V23.4673H65.1548V20.9564H68.1145V17.5492L70.7144 16.772V20.9564H74.6894V23.4673H74.6908Z" fill="black"/>
<path d="M78.8471 29.6249C79.1052 30.9599 79.7189 31.9967 80.6854 32.7338C81.652 33.4708 82.8422 33.8394 84.2575 33.8394C86.2307 33.8394 87.6647 33.1123 88.5624 31.6568L90.7736 32.9116C89.3181 35.163 87.127 36.2886 84.1973 36.2886C81.8255 36.2886 79.8982 35.5458 78.414 34.0616C76.9298 32.5775 76.187 30.6989 76.187 28.4275C76.187 26.1761 76.9141 24.3033 78.3696 22.8077C79.8236 21.3134 81.7065 20.5663 84.0195 20.5663C86.2106 20.5663 88.0003 21.3393 89.3855 22.8822C90.7707 24.4266 91.4633 26.2851 91.4633 28.4562C91.4633 28.8347 91.4332 29.2234 91.3744 29.622H78.8471V29.6249ZM84.0181 23.0199C82.6228 23.0199 81.467 23.4142 80.5507 24.2001C79.6343 24.9873 79.0665 26.0385 78.8471 27.3534H88.8305C88.6111 25.9381 88.0533 24.8626 87.1571 24.1255C86.2594 23.3884 85.2126 23.0199 84.0181 23.0199Z" fill="black"/>
<path d="M106.794 20.9564H109.394V35.9014H106.794V33.3303C105.499 35.3035 103.615 36.29 101.144 36.29C99.0518 36.29 97.2679 35.5272 95.7937 34.0028C94.3182 32.4785 93.5825 30.62 93.5825 28.4289C93.5825 26.2377 94.3196 24.3793 95.7937 22.855C97.2679 21.3306 99.0518 20.5677 101.144 20.5677C103.615 20.5677 105.498 21.5543 106.794 23.5275V20.9564ZM101.474 33.7806C102.988 33.7806 104.254 33.2672 105.27 32.2419C106.286 31.2151 106.794 29.9461 106.794 28.4303C106.794 26.916 106.286 25.6455 105.27 24.6188C104.253 23.592 102.988 23.0801 101.474 23.0801C99.9796 23.0801 98.7234 23.5935 97.7081 24.6188C96.6914 25.6455 96.1838 26.916 96.1838 28.4303C96.1838 29.9446 96.6914 31.2151 97.7081 32.2419C98.7234 33.2672 99.9781 33.7806 101.474 33.7806Z" fill="black"/>
<path d="M128.434 20.5677C130.108 20.5677 131.463 21.1112 132.499 22.1968C133.535 23.2837 134.054 24.7521 134.054 26.6048V35.9014H131.454V26.6952C131.454 25.5394 131.156 24.6431 130.558 24.005C129.96 23.3669 129.163 23.0485 128.166 23.0485C127.05 23.0485 126.158 23.4228 125.49 24.1699C124.822 24.917 124.489 26.0585 124.489 27.5929V35.9029H121.889V26.6966C121.889 25.5408 121.605 24.6446 121.038 24.0065C120.47 23.3683 119.697 23.05 118.722 23.05C117.626 23.05 116.714 23.4286 115.987 24.1857C115.26 24.9429 114.896 26.0786 114.896 27.5929V35.9029H112.296V20.9564H114.896V22.9596C115.912 21.365 117.397 20.5677 119.35 20.5677C121.362 20.5677 122.827 21.4152 123.743 23.1088C124.777 21.4152 126.342 20.5677 128.434 20.5677Z" fill="black"/>
<path d="M148.057 24.484C147.519 24.484 147.06 24.2947 146.682 23.9161C146.303 23.5375 146.114 23.0786 146.114 22.5409C146.114 22.0031 146.303 21.5443 146.682 21.1657C147.06 20.7871 147.519 20.5978 148.057 20.5978C148.615 20.5978 149.078 20.7871 149.446 21.1657C149.815 21.5443 150 22.0031 150 22.5409C150 23.0786 149.815 23.5375 149.446 23.9161C149.078 24.2947 148.615 24.484 148.057 24.484ZM148.057 36.2312C147.519 36.2312 147.06 36.0419 146.682 35.6634C146.303 35.2848 146.114 34.8259 146.114 34.2882C146.114 33.7504 146.303 33.2915 146.682 32.913C147.06 32.5344 147.519 32.3451 148.057 32.3451C148.615 32.3451 149.078 32.5344 149.446 32.913C149.815 33.2915 150 33.7504 150 34.2882C150 34.8259 149.815 35.2848 149.446 35.6634C149.078 36.0419 148.615 36.2312 148.057 36.2312Z" fill="black"/>
</svg>
