<svg width="584" height="80" viewBox="0 0 584 80" fill="none" xmlns="http://www.w3.org/2000/svg">
<path d="M418.024 26.7717V19.5455H452.07V26.7717H439.379V61H430.716V26.7717H418.024ZM457.677 61V19.5455H485.61V26.7717H466.442V36.6495H484.173V43.8757H466.442V53.7738H485.691V61H457.677ZM499.724 61H490.332L504.642 19.5455H515.937L530.228 61H520.836L510.452 29.0185H510.128L499.724 61ZM499.137 44.7056H521.321V51.5472H499.137V44.7056ZM535.217 19.5455H546.026L557.442 47.3977H557.928L569.344 19.5455H580.153V61H571.652V34.0181H571.308L560.58 60.7976H554.791L544.063 33.9169H543.719V61H535.217V19.5455Z" fill="#A5AABD"/>
<g clip-path="url(#clip0_700_4914)">
<path d="M299.467 19.9312V43.4348C299.467 48.7232 295.129 53.0091 289.777 53.0091C284.425 53.0091 280.088 48.7232 280.088 43.4348V27.1239V19.9312H270.93V37.478V42.8195C270.93 42.9468 270.919 43.0688 270.919 43.1961C270.919 53.5608 279.422 61.9682 289.917 61.9682C299.902 61.9682 308.088 54.3511 308.85 44.676H308.915V19.9312H299.467Z" fill="#303030"/>
<path d="M335.101 51.3011H334.816C334.864 51.3011 334.913 51.3064 334.961 51.3064C335.009 51.3064 335.052 51.3011 335.101 51.3011Z" fill="#303030"/>
<path d="M359.934 28.8001H372.49H374.981H380.461V19.3902H359.934C352.73 19.3902 346.889 25.1613 346.889 32.2797C346.889 37.6849 350.255 42.305 355.027 44.2198C355.027 44.2145 355.033 44.2092 355.033 44.2092C355.033 44.2145 355.033 44.2251 355.043 44.2304C355.94 44.5911 356.906 44.7768 357.872 44.7768H359.918C359.928 44.7768 359.934 44.7715 359.934 44.7609V44.7768H363.144H367.417C369.366 44.7768 370.938 46.3363 370.938 48.2564C370.938 50.1819 369.36 51.7361 367.417 51.7361H354.861H352.37H346.889V61.1407H367.417C373.397 61.1407 378.438 57.1624 379.973 51.7361C380.29 50.6275 380.456 49.4605 380.456 48.2564C380.456 42.8513 377.09 38.2312 372.318 36.3163C372.313 36.3163 372.307 36.311 372.302 36.311C371.352 35.9291 370.332 35.7647 369.307 35.7647H367.412H364.201H359.928C357.98 35.7647 356.407 34.2052 356.407 32.285C356.412 30.3543 357.99 28.8001 359.934 28.8001ZM359.934 37.7326C359.934 37.722 359.923 37.7061 359.934 37.7008V37.7326Z" fill="#303030"/>
<path d="M256.753 19.9312V23.0767C253.301 20.7534 249.13 19.3955 244.637 19.3955C232.73 19.3955 223.078 28.9327 223.078 40.6977C223.078 52.4628 232.73 62 244.637 62C249.13 62 253.296 60.6421 256.753 58.3188V61.146H266.195V19.9312H256.753ZM244.637 52.6643C238.131 52.6643 232.859 47.307 232.859 40.6924C232.859 34.0832 238.131 28.7205 244.637 28.7205C251.143 28.7205 256.415 34.0779 256.415 40.6924C256.415 47.3017 251.143 52.6643 244.637 52.6643Z" fill="#303030"/>
<path d="M199.373 19.7031C195.889 19.7031 192.625 20.6367 189.817 22.2492V19.9259H180.375V61.1407H189.817V54.6959V38.2365C189.817 32.9481 194.155 28.6622 199.507 28.6622C204.859 28.6622 209.196 32.9481 209.196 38.2365V54.5421V61.1407H218.354V44.1933V38.8518C218.354 38.7245 218.365 38.6025 218.365 38.4752C218.37 28.1105 209.867 19.7031 199.373 19.7031Z" fill="#303030"/>
<path d="M154.098 19.3902C149.637 19.3902 145.493 20.7322 142.052 23.0237V1.22279H132.609V39.0852C132.572 39.6157 132.539 40.1514 132.539 40.6924C132.539 41.2335 132.566 41.7692 132.609 42.2997V61.1407H142.052V58.3612C145.493 60.6527 149.637 61.9947 154.098 61.9947C166.004 61.9947 175.656 52.4575 175.656 40.6924C175.656 28.9274 166.004 19.3902 154.098 19.3902ZM154.098 52.6644C147.592 52.6644 142.32 47.307 142.32 40.6924C142.32 34.0832 147.592 28.7205 154.098 28.7205C160.604 28.7205 165.875 34.0832 165.875 40.6924C165.875 47.3017 160.599 52.6644 154.098 52.6644Z" fill="#2956EF"/>
<path d="M127.472 36.3323C125.529 26.5404 116.8 19.1568 106.321 19.1568C94.4149 19.1568 84.7629 28.694 84.7629 40.459C84.7629 52.2241 94.4149 61.7613 106.321 61.7613C114.588 61.7613 121.766 57.1571 125.384 50.4047H113.075C111.142 51.6884 108.818 52.4416 106.316 52.4416C101.13 52.4416 96.7071 49.2218 94.9839 44.6919H117.654H121.572H127.456C127.697 43.5144 127.837 42.305 127.874 41.069V39.8544C127.842 38.751 127.724 37.669 127.531 36.6134C127.504 36.5179 127.488 36.4224 127.472 36.3323ZM94.8819 36.5338C96.2293 32.72 99.4716 29.7867 103.503 28.8372C103.589 28.816 103.67 28.8001 103.755 28.7789C103.841 28.7577 103.933 28.7417 104.018 28.7258C104.448 28.641 104.883 28.572 105.328 28.5349C105.366 28.5296 105.403 28.5296 105.441 28.5243C105.726 28.503 106.015 28.4871 106.305 28.4871C106.311 28.4871 106.311 28.4871 106.316 28.4871H106.321C106.332 28.4871 106.343 28.4871 106.359 28.4871C106.617 28.4871 106.869 28.4977 107.127 28.519C107.212 28.5243 107.304 28.5296 107.39 28.5402C107.631 28.5614 107.867 28.5879 108.104 28.625C108.211 28.641 108.318 28.6622 108.426 28.6834C108.517 28.6993 108.603 28.7205 108.689 28.7364C108.732 28.747 108.775 28.7524 108.818 28.763C108.828 28.763 108.834 28.7683 108.844 28.7683C108.877 28.7736 108.909 28.7842 108.941 28.7895C113.053 29.6912 116.376 32.6564 117.745 36.5285H94.8819V36.5338Z" fill="#2956EF"/>
<path d="M35.333 60.6209H35.4296L35.333 60.5042V60.6209Z" fill="#2956EF"/>
<path d="M70.564 60.6209H70.6606L70.564 60.5042V60.6209Z" fill="#2956EF"/>
<path d="M70.532 42.6285L70.5374 46.0551L47.8141 19.9259L35.3117 19.9312H35.3009V42.6285L35.3063 46.0551L12.583 19.9259L0.0805664 19.9312L23.7004 46.8561L33.4221 58.2657L33.5348 58.3983C34.0394 58.9818 34.6406 59.4698 35.3278 59.8411C35.6499 60.0162 35.9881 60.1541 36.337 60.2761C36.9758 60.4883 37.6629 60.6103 38.3715 60.6103C40.7389 60.6103 42.8002 59.3319 43.9007 57.433C44.0564 57.1677 44.1852 56.8919 44.3033 56.6002C44.5824 55.8894 44.7435 55.1256 44.7435 54.3193C44.7435 53.3804 44.7435 52.5211 44.7435 51.8793V30.6831L58.9315 46.8561L68.6532 58.2657L68.7659 58.3983C69.2705 58.9818 69.8718 59.4698 70.5589 59.8411C70.881 60.0162 71.2192 60.1541 71.5681 60.2761C72.2069 60.4883 72.894 60.6103 73.6026 60.6103C75.97 60.6103 78.0313 59.3319 79.1318 57.433C79.2875 57.1677 79.4163 56.8919 79.5344 56.6002C79.8136 55.8894 79.9746 55.1256 79.9746 54.3193C79.9746 53.3804 79.9746 52.5211 79.9746 51.8793V19.9312H70.532V42.6285Z" fill="#2956EF"/>
<path d="M330.613 29.7708H342.171V19.9312H330.613V1.22279H321.17V19.9312H313.634V29.7708H321.17V47.0364C321.17 47.0364 321.17 47.0364 321.17 47.0311V47.0364C321.17 54.6906 327.344 60.9179 335.042 61.1301V61.1354H335.224C335.299 61.1354 335.369 61.1407 335.444 61.1407C335.503 61.1407 335.562 61.1354 335.621 61.1354H342.181V59.4751V58.8174V51.3064H335.111C335.063 51.3064 335.015 51.3117 334.967 51.3117C334.918 51.3117 334.87 51.3064 334.822 51.3064V51.3011C332.503 51.2269 330.64 49.3491 330.64 47.0364H330.618V33.765V29.7708H330.613Z" fill="#303030"/>
</g>
<defs>
<clipPath id="clip0_700_4914">
<rect width="401" height="61" fill="white" transform="translate(0 1)"/>
</clipPath>
</defs>
</svg>
