<svg xmlns="http://www.w3.org/2000/svg">
  <symbol viewBox="0 0 20 16" id="password-show">
    <path d="M10.0002 0.5C14.4935 0.5 18.2319 3.73333 19.016 8C18.2327 12.2667 14.4935 15.5 10.0002 15.5C5.50688 15.5 1.76854 12.2667 0.984375 8C1.76771 3.73333 5.50688 0.5 10.0002 0.5ZM10.0002 13.8333C11.6998 13.833 13.3489 13.2557 14.6776 12.196C16.0063 11.1363 16.936 9.65689 17.3144 8C16.9346 6.34442 16.0043 4.86667 14.6757 3.80835C13.3471 2.75004 11.6988 2.17377 10.0002 2.17377C8.30162 2.17377 6.65328 2.75004 5.32469 3.80835C3.99609 4.86667 3.06585 6.34442 2.68604 8C3.06446 9.65689 3.9941 11.1363 5.32283 12.196C6.65155 13.2557 8.30065 13.833 10.0002 13.8333ZM10.0002 11.75C9.00565 11.75 8.05182 11.3549 7.34856 10.6516C6.6453 9.94839 6.25021 8.99456 6.25021 8C6.25021 7.00544 6.6453 6.05161 7.34856 5.34835C8.05182 4.64509 9.00565 4.25 10.0002 4.25C10.9948 4.25 11.9486 4.64509 12.6519 5.34835C13.3551 6.05161 13.7502 7.00544 13.7502 8C13.7502 8.99456 13.3551 9.94839 12.6519 10.6516C11.9486 11.3549 10.9948 11.75 10.0002 11.75ZM10.0002 10.0833C10.5527 10.0833 11.0826 9.86384 11.4733 9.47314C11.864 9.08244 12.0835 8.55253 12.0835 8C12.0835 7.44747 11.864 6.91756 11.4733 6.52686C11.0826 6.13616 10.5527 5.91667 10.0002 5.91667C9.44767 5.91667 8.91777 6.13616 8.52707 6.52686C8.13637 6.91756 7.91688 7.44747 7.91688 8C7.91688 8.55253 8.13637 9.08244 8.52707 9.47314C8.91777 9.86384 9.44767 10.0833 10.0002 10.0833Z"></path>
  </symbol>

  <symbol viewBox="0 0 12 8" id="btn-arrow">
    <path d="M5.99865 4.97669L10.1236 0.851685L11.302 2.03002L5.99865 7.33335L0.695312 2.03002L1.87365 0.851685L5.99865 4.97669Z"></path>
  </symbol>

  <symbol viewBox="0 0 24 26" id="kanban">
    <path d="M8.98689 2.95534C8.98689 2.42254 9.19854 1.91156 9.57529 1.53481C9.95204 1.15807 10.463 0.946411 10.9958 0.946411H13.0047C13.5375 0.946411 14.0485 1.15807 14.4253 1.53481C14.802 1.91156 15.0137 2.42254 15.0137 2.95534V8.98213C15.0137 9.51493 14.802 10.0259 14.4253 10.4027C14.0485 10.7794 13.5375 10.9911 13.0047 10.9911H10.9958C10.463 10.9911 9.95204 10.7794 9.57529 10.4027C9.19854 10.0259 8.98689 9.51493 8.98689 8.98213V2.95534ZM0.951172 2.95534C0.951172 2.42254 1.16283 1.91156 1.53957 1.53481C1.91632 1.15807 2.4273 0.946411 2.9601 0.946411H4.96903C5.50183 0.946411 6.01281 1.15807 6.38956 1.53481C6.7663 1.91156 6.97796 2.42254 6.97796 2.95534V17.0178C6.97796 17.5506 6.7663 18.0616 6.38956 18.4384C6.01281 18.8151 5.50183 19.0268 4.96903 19.0268H2.9601C2.4273 19.0268 1.91632 18.8151 1.53957 18.4384C1.16283 18.0616 0.951172 17.5506 0.951172 17.0178V2.95534ZM17.0226 2.95534C17.0226 2.42254 17.2343 1.91156 17.611 1.53481C17.9878 1.15807 18.4987 0.946411 19.0315 0.946411H21.0405C21.5733 0.946411 22.0842 1.15807 22.461 1.53481C22.8377 1.91156 23.0494 2.42254 23.0494 2.95534V23.0446C23.0494 23.5774 22.8377 24.0884 22.461 24.4652C22.0842 24.8419 21.5733 25.0536 21.0405 25.0536H19.0315C18.4987 25.0536 17.9878 24.8419 17.611 24.4652C17.2343 24.0884 17.0226 23.5774 17.0226 23.0446V2.95534Z"></path>
  </symbol>

  <symbol viewBox="0 0 26 24" id="list">
    <path d="M2.95619 15.0134C2.42339 15.0134 1.91241 14.8017 1.53567 14.425C1.15892 14.0482 0.947265 13.5372 0.947265 13.0044L0.947265 10.9955C0.947265 10.4627 1.15892 9.95172 1.53567 9.57497C1.91241 9.19823 2.42339 8.98657 2.95619 8.98657C2.95619 8.98657 22.5127 8.98657 23.0455 8.98657C23.5783 8.98657 24.466 9.57497 24.466 9.57497C24.8428 9.95172 25.0544 10.4627 25.0544 10.9955L25.0544 13.0044C25.0544 13.5372 24.8428 14.0482 24.466 14.425C24.0893 14.8017 23.5783 15.0134 23.0455 15.0134L2.95619 15.0134ZM2.95619 23.0491C2.42339 23.0491 1.91241 22.8374 1.53567 22.4607C1.15892 22.0839 0.947266 21.5729 0.947266 21.0401L0.947265 19.0312C0.947265 18.4984 1.15892 17.9874 1.53567 17.6107C1.91241 17.2339 2.42339 17.0223 2.95619 17.0223L23.0455 17.0223C23.5783 17.0223 24.0893 17.2339 24.466 17.6107C24.8428 17.9874 25.0544 18.4984 25.0544 19.0312L25.0544 21.0401C25.0544 21.5729 24.8428 22.0839 24.466 22.4607C24.0893 22.8374 23.5783 23.0491 23.0455 23.0491L2.95619 23.0491ZM2.95619 6.97764C2.42339 6.97764 1.91241 6.76599 1.53567 6.38924C1.15892 6.01249 0.947265 5.50151 0.947265 4.96871L0.947265 2.95979C0.947265 2.42698 1.15892 1.91601 1.53567 1.53926C1.91241 1.16251 2.42339 0.950857 2.95619 0.950857L23.0455 0.950856C23.5783 0.950856 24.0893 1.16251 24.466 1.53926C24.8428 1.91601 25.0544 2.42698 25.0544 2.95978L25.0544 4.96871C25.0544 5.50151 24.8428 6.01249 24.466 6.38924C24.0893 6.76599 23.5783 6.97764 23.0455 6.97764L2.95619 6.97764Z"></path>
  </symbol>

  <symbol viewBox="0 0 20 20" id="google">
    <path d="M1.064 5.51C1.89601 3.85324 3.17237 2.46051 4.75043 1.48747C6.32849 0.514427 8.14606 -0.000583569 10 4.96231e-07C12.695 4.96231e-07 14.959 0.99 16.69 2.605L13.823 5.473C12.786 4.482 11.468 3.977 10 3.977C7.395 3.977 5.19 5.737 4.405 8.1C4.205 8.7 4.091 9.34 4.091 10C4.091 10.66 4.205 11.3 4.405 11.9C5.191 14.264 7.395 16.023 10 16.023C11.345 16.023 12.49 15.668 13.386 15.068C13.9054 14.726 14.3501 14.2822 14.6932 13.7635C15.0363 13.2448 15.2706 12.6619 15.382 12.05H10V8.182H19.418C19.536 8.836 19.6 9.518 19.6 10.227C19.6 13.273 18.51 15.837 16.618 17.577C14.964 19.105 12.7 20 10 20C8.68663 20.0005 7.38604 19.7422 6.17254 19.2399C4.95905 18.7375 3.85645 18.0009 2.92776 17.0722C1.99907 16.1436 1.2625 15.041 0.760135 13.8275C0.257774 12.614 -0.000524861 11.3134 8.00714e-07 10C8.00714e-07 8.386 0.386001 6.86 1.064 5.51Z"></path>
  </symbol>
</svg>