<svg width="1006" height="544" viewBox="0 0 1006 544" fill="none" xmlns="http://www.w3.org/2000/svg">
<path d="M47.7177 544.014C47.7177 544.014 -23.612 464.158 11.6522 309.949C33.8331 212.951 127.948 153.206 251.818 169.487C366.498 184.561 364.569 124.067 464.899 66.324C679.518 -57.1643 989.962 -4.71195 915.673 273.049C879.715 407.468 1028.77 409.621 954.69 543.986L47.7177 544.014Z" fill="white"/>
<path d="M655.82 41.1545L645.803 40.7011H645.567C644.979 40.6756 644.404 40.8668 643.949 41.2382C643.494 41.6096 643.193 42.1351 643.102 42.7144L641.814 50.971C641.736 51.4958 641.481 51.9783 641.091 52.3381C640.7 52.698 640.198 52.9134 639.667 52.9486C634.125 53.4013 628.73 54.9535 623.797 57.5142C623.595 57.6147 623.381 57.6879 623.16 57.7319C622.749 57.8088 622.325 57.7785 621.929 57.6441C621.533 57.5096 621.178 57.2755 620.899 56.9644L616.306 51.7135C616.008 51.3831 615.626 51.1403 615.2 51.0113C614.775 50.8823 614.322 50.872 613.891 50.9817C613.618 51.0582 613.359 51.1788 613.125 51.3387L604.736 57.1965C604.236 57.546 603.885 58.0696 603.753 58.6642C603.62 59.2587 603.716 59.8812 604.02 60.4091L608.671 68.4337C608.896 68.8208 609.005 69.2637 608.987 69.7106C608.968 70.1575 608.823 70.59 608.567 70.9574C607.827 72.0498 607.136 73.1706 606.485 74.3415C605.296 76.4984 604.3 78.7561 603.509 81.0881C603.355 81.5541 603.063 81.962 602.67 82.2569C602.277 82.5517 601.803 82.7194 601.312 82.7373L591.878 83.1157L591.406 83.1407C590.814 83.1616 590.253 83.4039 589.832 83.8193C589.412 84.2347 589.164 84.7927 589.137 85.3824L588.669 95.5987C588.643 96.2012 588.84 96.7921 589.223 97.2588C589.605 97.7256 590.147 98.0355 590.744 98.1296L599.952 99.5575C600.45 99.6317 600.911 99.8614 601.269 100.214C601.627 100.566 601.864 101.022 601.945 101.517C602.698 105.776 604.109 109.892 606.127 113.718C606.372 114.194 606.45 114.738 606.349 115.264C606.248 115.789 605.973 116.265 605.569 116.617L599.384 122.082C598.93 122.478 598.639 123.028 598.567 123.625C598.496 124.222 598.649 124.825 598.997 125.316L604.886 133.723C605.221 134.2 605.723 134.534 606.294 134.66C606.864 134.786 607.461 134.693 607.966 134.401L617.425 128.939C617.819 128.712 618.268 128.598 618.722 128.611C619.177 128.625 619.618 128.764 619.998 129.014C620.952 129.647 621.938 130.242 622.956 130.799C624.842 131.836 626.805 132.727 628.827 133.466C629.271 133.619 629.658 133.903 629.936 134.28C630.215 134.657 630.372 135.11 630.387 135.579L630.831 146.891C630.855 147.489 631.103 148.056 631.525 148.481C631.947 148.906 632.514 149.157 633.113 149.186L643.391 149.661C643.918 149.681 644.437 149.527 644.868 149.224C645.3 148.921 645.619 148.485 645.778 147.983C645.816 147.875 645.842 147.762 645.856 147.648L647.452 137.453C647.519 136.991 647.721 136.559 648.032 136.211C648.344 135.863 648.752 135.614 649.205 135.497C649.286 135.472 649.368 135.454 649.452 135.443C649.701 135.412 649.948 135.366 650.192 135.307C653.134 134.803 656.013 133.985 658.779 132.866C659.232 132.679 659.733 132.641 660.21 132.757C660.686 132.873 661.114 133.137 661.429 133.512L667.204 140.069C667.599 140.518 668.146 140.804 668.74 140.875C669.335 140.945 669.934 140.795 670.424 140.451L672.291 139.152L678.799 134.576C679.294 134.234 679.643 133.719 679.776 133.132C679.908 132.545 679.815 131.93 679.514 131.409L674.903 123.51C674.664 123.098 674.558 122.623 674.599 122.15C674.64 121.676 674.826 121.226 675.132 120.861C676.795 118.842 678.267 116.673 679.528 114.382C680.474 112.667 681.297 110.888 681.99 109.056L683.968 108.978L692.089 108.649C692.573 108.634 693.04 108.468 693.425 108.175C693.81 107.882 694.094 107.476 694.236 107.014C694.3 106.819 694.335 106.616 694.34 106.411L694.833 96.127C694.853 95.5402 694.658 94.9662 694.285 94.5122C693.912 94.0583 693.386 93.7555 692.805 93.6604L686.512 92.693C685.991 92.6108 685.511 92.3591 685.148 91.9769C684.785 91.5947 684.559 91.1035 684.505 90.5798C684.094 86.164 682.985 81.841 681.217 77.7719C681.009 77.3168 680.954 76.8063 681.062 76.3176C681.17 75.8288 681.434 75.3883 681.815 75.0625L689.685 68.1767C690.108 67.8007 690.378 67.2831 690.443 66.722C690.509 66.1609 690.367 65.5951 690.043 65.1318L684.076 56.6396C683.74 56.1563 683.235 55.8168 682.66 55.6891C682.085 55.5614 681.483 55.6548 680.974 55.9506L671.153 61.6478C670.74 61.889 670.264 62.0003 669.787 61.9672C669.309 61.9341 668.853 61.7581 668.477 61.4622C666.783 60.1564 664.989 58.9855 663.111 57.9604C662.081 57.3964 661.038 56.8788 659.984 56.4076C659.577 56.2272 659.228 55.9379 658.976 55.5719C658.723 55.2059 658.577 54.7773 658.553 54.3336L658.124 43.489C658.101 42.8831 657.853 42.3074 657.426 41.8754C657 41.4433 656.427 41.1861 655.82 41.1545ZM624.695 81.3808C626.408 78.988 628.518 76.9044 630.934 75.2196C631.537 74.7996 632.17 74.4238 632.827 74.0952C635.868 72.5888 639.982 71.5964 642.933 71.7356C665.526 72.8993 673.575 99.6574 655.763 113.051C655.466 113.268 655.172 113.483 654.865 113.693C652.024 115.678 646.829 117.163 643.373 117.024C641.636 116.953 639.909 116.722 638.215 116.331C622.033 112.483 615.619 94.2601 624.709 81.388L624.695 81.3808Z" fill="#DFEDFB"/>
<path d="M791.671 112.294L776.413 109.681L776.055 109.62C775.161 109.469 774.242 109.652 773.474 110.134C772.707 110.616 772.144 111.364 771.894 112.233L768.338 124.634C768.281 124.835 768.207 125.031 768.116 125.22C767.807 125.856 767.318 126.389 766.709 126.751C766.099 127.113 765.397 127.29 764.689 127.258C756.107 126.891 747.539 128.235 739.485 131.213C739.157 131.33 738.816 131.402 738.469 131.427C737.825 131.466 737.181 131.339 736.601 131.058C736.021 130.776 735.523 130.35 735.156 129.821L729.124 120.897C728.731 120.33 728.189 119.883 727.558 119.604C726.927 119.325 726.231 119.225 725.547 119.315C725.115 119.379 724.697 119.512 724.309 119.708L710.352 127.079C709.518 127.522 708.881 128.261 708.566 129.15C708.252 130.039 708.283 131.013 708.653 131.881L714.263 145.063C714.533 145.699 714.616 146.399 714.502 147.081C714.388 147.762 714.082 148.397 713.619 148.911C712.277 150.446 710.993 152.024 709.777 153.698C707.54 156.776 705.581 160.045 703.924 163.468C703.599 164.151 703.072 164.719 702.415 165.095C701.758 165.471 701.001 165.637 700.246 165.571L685.721 164.347L685.005 164.293C684.095 164.214 683.189 164.479 682.466 165.036C681.743 165.592 681.256 166.4 681.102 167.299L678.419 182.859C678.262 183.778 678.449 184.723 678.945 185.513C679.441 186.303 680.212 186.883 681.109 187.142L694.94 191.094C695.688 191.304 696.35 191.744 696.831 192.352C697.312 192.96 697.588 193.704 697.62 194.478C697.955 201.146 699.325 207.722 701.68 213.972C701.966 214.747 701.982 215.595 701.727 216.381C701.472 217.166 700.961 217.844 700.274 218.305L689.685 225.463C688.915 225.983 688.364 226.769 688.14 227.67C687.917 228.571 688.035 229.523 688.472 230.342L695.881 244.353C696.303 245.148 697.009 245.757 697.859 246.057C698.709 246.358 699.641 246.33 700.471 245.977L716.009 239.42C716.656 239.146 717.368 239.057 718.063 239.165C718.758 239.272 719.41 239.57 719.944 240.027C721.282 241.176 722.678 242.277 724.133 243.329C726.824 245.277 729.66 247.018 732.616 248.537C733.266 248.856 733.804 249.365 734.158 249.996C734.512 250.627 734.665 251.351 734.598 252.071L733.102 269.487C733.025 270.408 733.296 271.324 733.863 272.056C734.429 272.787 735.249 273.28 736.161 273.439L751.813 276.134C752.617 276.265 753.442 276.129 754.161 275.748C754.881 275.366 755.455 274.759 755.795 274.02C755.872 273.86 755.933 273.693 755.977 273.521L760.378 258.21C760.569 257.514 760.962 256.89 761.507 256.416C762.053 255.943 762.727 255.64 763.444 255.548C763.573 255.525 763.703 255.513 763.834 255.512C764.22 255.51 764.605 255.488 764.989 255.448C769.589 255.235 774.153 254.53 778.602 253.345C779.332 253.147 780.106 253.185 780.814 253.454C781.521 253.723 782.124 254.208 782.537 254.841L790.122 265.992C790.642 266.758 791.429 267.305 792.329 267.527C793.229 267.749 794.18 267.631 794.998 267.195L798.107 265.56L808.951 259.831C809.773 259.398 810.403 258.673 810.715 257.799C811.027 256.925 810.999 255.966 810.636 255.112L805.112 242.126C804.823 241.451 804.75 240.703 804.902 239.985C805.055 239.267 805.425 238.614 805.963 238.113C808.902 235.338 811.575 232.295 813.948 229.025C815.726 226.578 817.328 224.009 818.742 221.336L821.791 221.6L834.291 222.646C835.035 222.717 835.783 222.553 836.429 222.178C837.075 221.803 837.587 221.235 837.893 220.554C838.029 220.267 838.122 219.962 838.169 219.648L840.902 203.984C841.045 203.089 840.857 202.173 840.372 201.407C839.887 200.641 839.14 200.078 838.269 199.822L828.81 197.137C828.028 196.91 827.343 196.432 826.861 195.777C826.379 195.122 826.127 194.327 826.144 193.514C826.363 186.67 825.493 179.835 823.565 173.264C823.334 172.527 823.348 171.735 823.606 171.007C823.864 170.279 824.352 169.654 824.996 169.226L838.38 160.184C839.1 159.69 839.613 158.95 839.823 158.103C840.034 157.257 839.926 156.363 839.521 155.59L832.008 141.44C831.588 140.634 830.878 140.017 830.021 139.711C829.164 139.405 828.223 139.434 827.386 139.791L811.222 146.62C810.543 146.911 809.792 146.99 809.067 146.848C808.342 146.706 807.677 146.349 807.158 145.824C804.813 143.497 802.287 141.361 799.602 139.434C798.136 138.37 796.639 137.377 795.113 136.453C794.527 136.098 794.052 135.587 793.739 134.979C793.427 134.37 793.289 133.687 793.342 133.005L794.773 116.306C794.853 115.371 794.579 114.441 794.004 113.698C793.43 112.955 792.597 112.454 791.671 112.294ZM736.283 167.98C739.363 164.642 742.993 161.854 747.016 159.738C748.019 159.208 749.06 158.753 750.132 158.378C755.079 156.647 761.58 155.904 766.07 156.693C800.454 162.797 807.645 205.33 777.783 222.443C777.289 222.717 776.795 222.992 776.284 223.257C771.554 225.755 763.308 227.037 758.038 226.159C755.39 225.717 752.788 225.031 750.268 224.11C726.205 215.107 719.88 185.957 736.283 167.966V167.98Z" fill="#CDE3FD"/>
<path d="M284.625 222.949C283.766 201.71 301.608 192.275 319.85 192.275C338.092 192.275 357.944 196.991 359.661 225.234C360.77 243.4 351.075 254.58 323.113 254.58C313.686 254.58 306.359 253.095 300.749 250.45L286.775 262.837L293.644 245.702C287.559 240.073 284.997 232.113 284.625 222.949Z" fill="#DFEDFB"/>
<path d="M111.066 542.99C111.066 542.99 110.311 537.103 108.561 533.605C106.812 530.107 95.6464 532.331 95.6464 532.331C95.6464 532.331 93.414 534.241 92.9346 543.15L111.066 542.99Z" fill="#303139"/>
<path d="M149.096 542.911C146.473 541.312 147.965 529.397 147.965 529.397C147.965 529.397 160.186 519.644 161.868 527.112C163.549 534.58 173.477 537.935 179.129 538.849C183.029 539.481 184.238 541.637 184.614 542.911H149.096Z" fill="#303139"/>
<path d="M123.784 456.244C124.214 458.421 124.513 460.621 124.682 462.833C125.82 484.944 143.335 535.497 146.469 536.675C151.317 538.503 158.951 534.622 162.944 533.352C164.6 532.823 165.717 531.16 165.348 529.468C156.673 489.677 153.485 432.374 152.326 398.462C151.739 381.374 148.802 369.569 148.802 369.569C148.802 369.569 106.075 358.196 105.824 372.586C105.596 385.311 119.97 435.244 123.784 456.244Z" fill="#213F7A"/>
<path d="M123.784 456.244L152.326 398.455C151.739 381.367 148.802 369.562 148.802 369.562C148.802 369.562 106.075 358.189 105.824 372.578C105.596 385.311 119.97 435.244 123.784 456.244Z" fill="#303139"/>
<path d="M133.286 372.628L110.701 535.961C110.701 535.961 100.784 538.346 93.0705 536.44C93.0705 536.44 86.4556 449.569 87.0065 428.568C87.5575 407.568 82.2626 372.375 88.2157 368.495C94.1688 364.614 133.286 372.628 133.286 372.628Z" fill="#213F7A"/>
<path d="M86.631 330.692L83.8155 369.908C83.768 370.621 83.9665 371.328 84.3778 371.913C84.7891 372.497 85.3886 372.924 86.0765 373.121C89.2284 374.031 92.8739 374.667 99.8645 376.116C108.526 377.86 117.338 378.743 126.174 378.754C143.475 378.861 150.026 372.914 150.026 372.914C150.77 372.914 149.632 369.312 148.595 352.135C148.237 346.316 147.911 338.927 147.672 329.618C147.453 321.233 147.314 311.266 147.292 299.443C147.271 285.222 125.212 269.922 124.804 269.922C124.804 271.971 121.584 275.748 116.575 276.077C110.662 276.462 103.406 273.524 103.406 270.13C103.406 270.094 92.7201 287.189 88.9243 305.405C88.4377 307.711 88.0657 310.149 87.7687 312.712C87.7687 312.751 87.7687 312.79 87.7687 312.83C87.7151 313.297 87.665 313.768 87.6149 314.257C87.6149 314.34 87.6149 314.425 87.5898 314.507C87.5469 314.939 87.504 315.375 87.4646 315.814C87.4646 315.939 87.4432 316.067 87.4324 316.171C87.3967 316.574 87.3609 316.974 87.3287 317.381V317.492C87.3036 317.791 87.2857 318.095 87.2607 318.398C87.2607 318.609 87.2285 318.83 87.2142 319.044C87.1892 319.401 87.1641 319.758 87.1391 320.115C87.1391 320.294 87.1176 320.472 87.1033 320.654C87.0854 320.993 87.0639 321.336 87.0425 321.682C87.0425 321.832 87.0425 321.986 87.0139 322.139C86.9888 322.635 86.9602 323.139 86.9351 323.642C86.9351 323.685 86.9351 323.724 86.9351 323.763C86.9101 324.249 86.8851 324.738 86.8636 325.227C86.8636 325.348 86.8636 325.47 86.8457 325.584C86.8242 326.044 86.8028 326.509 86.7849 326.976V327.183C86.7384 328.322 86.6954 329.482 86.6525 330.656C86.6525 330.689 86.6525 330.717 86.6525 330.746L86.631 330.692Z" fill="#F99746"/>
<path d="M124.814 269.944C124.814 269.944 145.328 269.769 150.265 276.676C155.202 283.584 166.028 320.751 160.379 333.12C154.73 345.488 144.176 328.004 138.295 320.429C132.413 312.855 124.814 269.944 124.814 269.944Z" fill="#F99746"/>
<path d="M125.026 266.817V268.934C125.026 268.934 125.602 275.552 117.434 276.519C109.266 277.487 103.217 275.259 103.439 270.154C104.176 266.199 104.845 262.162 104.902 258.892C104.918 257.566 104.821 256.24 104.612 254.93L120.436 254.612L125.086 255.373L125.026 266.817Z" fill="#FFB27D"/>
<path d="M125.087 255.373L125.026 266.817C123.234 267.653 121.279 268.083 119.302 268.073C112.028 268.073 107.328 262.755 104.873 258.892C104.889 257.566 104.792 256.24 104.583 254.93L120.407 254.612L125.087 255.373Z" fill="#E2915A"/>
<path d="M103.392 252.374C105.227 262.233 117.978 261.909 123.487 261.298C125.036 261.123 126.013 260.941 126.013 260.941C127.762 260.474 128.735 257.729 129.19 254.127C130.091 247.005 128.954 236.55 127.759 233.876C125.941 229.85 122.525 225.498 109.685 228.639C96.8448 231.781 101.031 239.755 103.392 252.374Z" fill="#FFB27D"/>
<path d="M145.793 297.641C145.793 297.641 153.725 315.132 153.496 320.362C150.894 320.325 148.301 320.658 145.793 321.35C139.59 323.196 145.793 297.641 145.793 297.641Z" fill="#ED7D2B"/>
<path d="M131.684 224.484C127.433 224 123.281 222.878 119.366 221.158C113.957 218.809 107.131 221.393 104.916 222.56C104.994 222.082 105.179 221.627 105.456 221.229C105.456 221.229 104.458 221.943 104.315 222.917C104.211 222.992 104.165 223.046 104.19 223.06C104.215 223.074 103.063 222.857 102.34 223.182C102.34 223.182 102.848 223.11 103.027 223.435C103.048 223.47 103.076 223.501 103.11 223.524C94.67 227.594 93.8901 240.901 96.6055 243.982C99.8718 247.687 103.793 256.029 103.793 256.029C103.793 256.029 105.224 254.059 104.626 250.8C104.029 247.541 106.855 247.537 110.419 246.056C113.982 244.574 111.012 240.423 114.132 237.906C117.252 235.39 128.689 236.868 128.539 234.94C132.786 233.398 131.684 224.916 131.684 224.484Z" fill="#303139"/>
<path d="M100.802 330.389C104.15 343.811 140.373 350.736 148.605 352.164C148.248 346.345 147.922 338.956 147.682 329.646L100.802 330.389Z" fill="#ED7D2B"/>
<path d="M108.759 334.751C108.401 334.751 100.709 333.605 99.3281 332.916C97.9471 332.227 91.6327 323.278 95.7684 320.979C99.904 318.68 111.002 327.865 111.002 327.865L108.759 334.751Z" fill="#FFB27D"/>
<path d="M155.624 337.41C155.624 337.41 125.816 339.024 105.814 334.751C105.814 334.751 105.309 328.986 111.595 326.423C111.595 326.423 142.774 319.83 150.262 321.668C157.75 323.506 155.624 337.41 155.624 337.41Z" fill="#F99746"/>
<path d="M87.175 314.072C93.3606 321.515 101.449 327.59 110.361 329.011C112.122 326.012 112.894 322.537 112.569 319.077C112.254 315.817 111.139 312.685 109.32 309.96C108.623 308.843 108.036 307.662 107.567 306.433C102.702 294.039 103.424 270.155 103.424 270.155C103.424 270.155 82.7531 272.314 76.3099 281.495C72.3674 287.121 77.401 302.303 87.175 314.072Z" fill="#F99746"/>
<path d="M123.484 261.298C125.033 261.123 126.009 260.941 126.009 260.941C127.759 260.474 128.732 257.729 129.186 254.127C125.909 254.934 124.407 257.461 123.781 258.539C123.498 259.014 123.426 260.102 123.484 261.298Z" fill="#E2915A"/>
<path d="M131.812 266.881C131.812 266.881 138.967 255.126 133.401 254.612C127.834 254.098 125.616 257.85 124.814 259.228C124.013 260.606 125.026 266.817 125.026 266.817L131.812 266.881Z" fill="#FFB27D"/>
<path d="M104.601 318.684C104.813 320.094 105.223 321.467 105.818 322.764C106.9 325.127 108.445 327.251 110.361 329.011C128.904 320.658 132.657 291.983 133.286 276.223C133.537 269.89 133.286 265.646 133.286 265.646C124.918 262.88 122.553 267.684 122.553 267.684C122.553 267.684 112.694 291.119 107.571 306.433C105.614 312.294 104.347 316.985 104.601 318.684Z" fill="#F99746"/>
<path d="M87.1748 314.072C93.3604 321.515 101.449 327.59 110.361 329.011C128.904 320.658 132.657 291.983 133.286 276.223C133.286 276.223 124.51 307.993 112.568 319.077C110.422 321.086 108.147 322.418 105.814 322.764C105.814 322.764 90.7524 318.516 87.5934 314.518C87.3716 314.233 87.2356 314.09 87.1748 314.072Z" fill="#ED7D2B"/>
<path d="M679.181 416.396C679.181 416.396 690.962 402.606 679.847 393.907C679.847 393.907 671.733 389.034 665.129 389.449C665.129 389.449 674.53 405.087 671.507 406.651C668.484 408.214 662.288 388.474 662.288 388.474C662.288 388.474 643.846 386.743 637.925 389.606C637.925 389.606 653.72 402.431 650.403 403.206C647.087 403.981 630.011 391.394 630.011 391.394C630.011 391.394 612.86 394.357 613.801 404.798C614.742 415.239 620.666 418.448 623.264 418.163C625.861 417.877 641.048 412.048 641.384 414.172C641.72 416.296 632.59 423.264 626.187 423.606C626.187 423.606 638.318 436.882 646.35 433.02C654.382 429.157 655.047 423.064 660.052 420.765C665.057 418.466 669.354 418.463 667.275 420.797C665.197 423.132 656.145 425.438 653.294 430.489C650.443 435.54 647.881 438.974 656.195 437.699C664.51 436.425 678.019 430.317 678.587 423.364L679.181 416.396Z" fill="#C8DBF4"/>
<path d="M622.251 405.048C622.251 405.048 668.853 403.127 679.181 416.396C679.181 416.396 681.475 423.178 688.483 429.368L689.581 432.331C689.581 432.331 681.485 423.86 678.591 423.353C678.605 423.36 683.081 406.865 622.251 405.048Z" fill="#C8DBF4"/>
<path d="M688.497 429.368C688.497 429.368 698.514 436.721 699.251 449.908L697.438 450.075C697.438 450.075 694.218 436.447 688.415 431.128C682.612 425.809 688.497 429.368 688.497 429.368Z" fill="#C8DBF4"/>
<path d="M741.685 380.032C741.685 380.032 722.853 369.576 731.586 355.294C731.586 355.294 738.583 346.52 746.096 344.228C746.096 344.228 742.143 365.503 746.157 366.003C750.171 366.503 748.847 341.979 748.847 341.979C748.847 341.979 768.628 332.42 776.395 333.152C776.395 333.152 764.167 353.945 768.166 353.434C772.166 352.924 785.907 331.874 785.907 331.874C785.907 331.874 806.203 328.065 809.494 340.062C812.786 352.06 807.541 358.078 804.532 358.839C801.524 359.599 782.223 359.399 782.731 361.898C783.239 364.397 796.286 368.366 803.552 366.096C803.552 366.096 795.581 385.879 785.049 384.908C774.517 383.937 771.239 377.44 764.721 376.958C758.203 376.476 753.445 378.24 756.707 379.982C759.97 381.724 771 380.517 776.277 384.979C781.554 389.441 785.822 392.169 776.051 394.196C766.281 396.224 748.726 395.024 745.195 387.528L741.685 380.032Z" fill="#C8DBF4"/>
<path d="M800.246 343.846C800.246 343.846 747.656 361.002 741.685 380.032C741.685 380.032 741.957 388.535 736.719 398.305V402.057C736.719 402.057 742.2 389.284 745.202 387.525C745.209 387.525 733.403 371.047 800.246 343.846Z" fill="#C8DBF4"/>
<path d="M736.719 398.305C736.719 398.305 728.634 410.631 733.306 425.591L735.392 425.027C735.392 425.027 733.317 408.539 737.539 400.229C741.76 391.919 736.719 398.305 736.719 398.305Z" fill="#C8DBF4"/>
<path d="M711.73 365.625C711.73 365.625 736.476 351.703 724.86 332.945C724.86 332.945 715.558 321.429 705.652 318.487C705.652 318.487 711.018 346.499 705.731 347.173C700.443 347.848 702.006 315.528 702.006 315.528C702.006 315.528 675.865 303.07 665.622 304.105C665.622 304.105 681.893 331.431 676.602 330.785C671.311 330.139 653.062 302.492 653.062 302.492C653.062 302.492 626.28 297.619 622.026 313.458C617.772 329.296 624.738 337.192 628.705 338.171C632.673 339.149 658.117 338.749 657.466 342.051C656.814 345.353 639.646 350.671 630.054 347.73C630.054 347.73 640.701 373.749 654.575 372.393C668.449 371.036 672.724 362.451 681.314 361.769C689.903 361.088 696.189 363.376 691.9 365.696C687.61 368.016 673.067 366.503 666.141 372.411C659.215 378.318 653.62 381.959 666.499 384.547C679.378 387.135 702.525 385.436 707.122 375.53L711.73 365.625Z" fill="#D4E4F8"/>
<path d="M634.269 318.355C634.269 318.355 703.731 340.584 711.73 365.625C711.73 365.625 711.43 376.837 718.406 389.677V394.621C718.406 394.621 711.09 377.844 707.115 375.527C707.129 375.527 722.602 353.724 634.269 318.355Z" fill="#D4E4F8"/>
<path d="M718.406 389.677C718.406 389.677 729.139 405.862 723.107 425.62L720.352 424.906C720.352 424.906 722.964 403.156 717.333 392.236C711.702 381.317 718.406 389.677 718.406 389.677Z" fill="#D4E4F8"/>
<path d="M873.308 540.116L669.812 540.62C639.542 506.04 636.462 459.296 676.674 419.933C681.729 414.982 691.428 411.473 701.881 409C721.154 404.445 743.023 403.402 743.177 403.31C743.238 403.285 754.729 394 761.641 385.654C783.131 359.731 801.377 361.962 801.377 361.962C823.261 357.722 841.925 356.483 855.756 364.176C868.571 371.315 877.243 386.118 880.477 413.322C881.093 418.465 881.509 424.065 881.726 430.121C882.509 452.199 886.863 471.84 889.446 488.471C893.206 512.577 893.231 530.357 873.308 540.116Z" fill="#F99746"/>
<path d="M844.909 391.426C831.629 398.637 830.148 422.407 809.366 428.55C788.584 434.694 753.309 434.108 733.288 455.755C713.97 476.641 692.708 423.474 701.881 408.528C721.153 403.97 743.023 402.928 743.177 402.817C743.238 402.795 754.729 393.507 761.641 385.161C783.106 359.239 801.381 361.477 801.381 361.477C823.265 357.236 841.929 355.997 855.76 363.687C862.786 371.347 858.189 384.216 844.909 391.426Z" fill="#ED7D2B"/>
<path d="M763.405 398.23C763.405 398.23 696.772 397.355 687.896 403.02C679.02 408.685 697.048 498.723 697.048 498.723C697.048 498.723 714.281 499.222 715.651 494.671C715.651 494.671 712.431 452.467 715.125 445.167C717.819 437.867 716.116 427.769 716.116 427.769C716.116 427.769 749.835 432.806 760.532 430.267C771.229 427.729 763.405 398.23 763.405 398.23Z" fill="#303139"/>
<path d="M778.838 351.692C778.838 351.742 769.461 373.499 764.886 375.816C760.31 378.133 743.778 397.102 740.218 396.773C736.659 396.445 744.368 399.651 744.368 399.651C744.368 399.651 773.289 386.35 774.971 385.518C776.652 384.687 785.511 370.147 786.727 362.769C787.943 355.391 778.838 351.692 778.838 351.692Z" fill="#FFB27D"/>
<path d="M717.766 505.437C715.544 509.721 715.043 517.574 714.381 520.24C713.719 522.907 702.078 531.97 701.076 531.517C698.529 530.371 700.962 525.941 702.507 522.703C702.572 522.575 702.632 522.446 702.69 522.318C704.224 519.055 702.904 511.777 703.698 508.014C704.493 504.252 700.672 494.132 700.672 494.132L707.112 486.025C707.112 486.025 711.634 494.592 714.868 496.17C715.432 496.44 715.962 496.777 716.445 497.173C718.642 498.972 719.59 501.921 717.766 505.437Z" fill="#FFB27D"/>
<path d="M695.152 530.478C690.694 532.313 685.227 538 682.988 539.609C680.748 541.219 666.002 540.648 665.529 539.659C664.277 537.046 669.436 535.183 672.717 533.677L672.863 533.609C676.108 531.981 679.739 525.731 682.734 523.407C685.728 521.083 689.395 510.852 689.395 510.852L699.552 508.8C699.552 508.8 697.459 518.266 698.919 521.54C699.057 521.844 699.176 522.156 699.277 522.475C700.217 525.509 699.191 528.815 695.152 530.478Z" fill="#FFB27D"/>
<path d="M797.964 342.033C796.605 340.469 818.031 334.026 822.603 351.571C822.603 351.571 862.038 341.108 837.797 323.578C829.404 317.509 828.56 311.034 827.343 305.109C826.127 299.183 817.759 282.152 803.223 290.605C803.223 290.605 796.583 290.634 792.383 294.264C782.827 302.524 772.399 355.03 797.964 342.033Z" fill="#163560"/>
<path d="M791.242 401.314C791.242 401.314 722.144 408.321 716.073 415.357C710.002 422.393 686.125 513.901 686.125 513.901C686.125 513.901 693.177 517.827 699.588 514.158C699.588 514.158 717.869 483.102 725.958 473.375C734.047 463.647 737.077 433.541 738.412 433.234C739.746 432.927 783.045 439.263 797.957 427.844C812.868 416.424 791.242 401.314 791.242 401.314Z" fill="#2A4E96"/>
<path d="M829.726 338.76C829.726 338.76 813.247 331.413 792.344 334.772C788.076 335.458 784.23 336.861 781.171 341.879C776.856 348.969 774.835 352.774 774.835 352.774C774.835 352.774 775.253 356.062 781.146 358.678C779.539 364.557 782.613 374.824 779.783 378.811C776.953 382.798 759.39 392.672 758.518 398.166C756.922 408.264 788.523 426.566 797.95 424.613C825.068 418.991 843.492 346.491 829.726 338.76Z" fill="#F9DDBF"/>
<path d="M820.402 317.956C820.402 317.956 823.651 311.577 824.084 306.344C824.391 302.606 821.222 289.163 807.695 292.422C804.968 293.064 802.421 294.309 800.239 296.063C797.449 298.351 793.56 303.088 799.488 314.525L801.116 318.423L820.402 317.956Z" fill="#163560"/>
<path d="M801.846 339.473C800.476 340.901 801.012 345.702 807.42 345.346C811.623 345.11 820.635 339.923 819.791 336.339C819.39 334.633 816.16 330.239 815.401 320.13L814.636 320.344L801.803 323.942C801.803 323.942 802.422 328.011 802.733 331.87C802.998 335.104 802.411 338.874 801.846 339.473Z" fill="#FFB27D"/>
<path d="M801.803 323.938C801.803 323.938 802.422 328.008 802.733 331.867C810.013 331.088 813.348 324.145 814.636 320.34L801.803 323.938Z" fill="#F4A269"/>
<path d="M801.527 329.857C801.527 329.857 818.32 325.645 815.53 315.25C812.739 304.855 813.026 297.309 802.185 299.561C791.345 301.814 790.336 306.344 790.422 310.028C790.508 313.711 797.084 330.689 801.527 329.857Z" fill="#FFB27D"/>
<path d="M794.501 301.35C794.501 301.35 800.139 312.059 810.775 313.226C817 313.904 818.71 317.995 818.71 317.995C818.71 317.995 816.843 306.294 813.702 299.136C813.713 299.136 796.39 294.621 794.501 301.35Z" fill="#163560"/>
<path d="M796.425 302.767C796.425 302.767 792.748 306.511 791.614 309.153C789.932 313.079 793.209 321.29 794.562 323.074C794.562 323.074 786.748 309.845 789.36 304.116C792.129 298.041 796.425 302.767 796.425 302.767Z" fill="#163560"/>
<path d="M745.209 399.265C745.209 399.265 741.864 402.799 741.46 402.988C739.245 404.02 736.451 403.42 735.102 403.756C733.754 404.091 733.986 403.26 734.981 402.578C735.975 401.896 738.426 402.164 737.424 401.914C736.423 401.664 731.017 400.661 728.981 401.2C725.761 402.06 723.218 401.05 723.014 400.721C722.81 400.393 730.373 396.706 732.534 396.831C734.695 396.956 740.902 396.656 740.902 396.656L745.209 399.265Z" fill="#FFB27D"/>
<path d="M835.407 345.274C835.407 345.274 837.414 394.425 831.626 401.318C825.837 408.21 790.63 400.557 790.63 400.557L788.187 396.966C788.187 396.966 819.472 392.397 821.573 391.804C824.596 390.955 822.492 357.108 822.492 357.108L835.407 345.274Z" fill="#FFB27D"/>
<path d="M827.636 337.985C828.137 337.985 834.366 340.037 838.834 348.869C843.228 357.547 844.827 361.759 844.827 361.759C844.827 361.759 825.34 376.823 817.591 371.275C809.841 365.728 820.488 337.799 827.636 337.985Z" fill="#F9DDBF"/>
<path d="M790.644 400.554C790.644 400.554 787.84 403.388 786.773 404.837C785.707 406.287 778.252 408.907 778.083 408.132C777.915 407.357 781.418 404.998 781.736 404.116C782.055 403.234 785.872 398.815 788.201 398.312C790.53 397.809 790.644 400.554 790.644 400.554Z" fill="#FFB27D"/>
<path d="M788.186 396.963C788.186 396.963 776.692 399.615 774.742 400.411C772.792 401.207 768.66 407.047 770.295 407.907C771.332 408.46 775.869 406.072 778.166 405.573C780.462 405.073 786.992 406.204 789.972 400.322C790.319 399.676 788.186 396.963 788.186 396.963Z" fill="#FFB27D"/>
<path d="M695.152 530.478C690.694 532.313 685.228 538 682.988 539.609C680.748 541.219 666.002 540.648 665.529 539.659C664.277 537.046 669.436 535.183 672.717 533.677L672.863 533.609L673.329 533.459C673.329 533.459 679.693 535.726 684.984 533.459C689.113 531.674 695.231 525.142 699.27 522.475C700.218 525.509 699.191 528.815 695.152 530.478Z" fill="#2E3552"/>
<path d="M717.766 505.437C715.544 509.721 715.043 517.574 714.381 520.24C713.719 522.907 702.078 531.97 701.076 531.517C698.529 530.371 700.962 525.941 702.507 522.703C703.789 522.589 705.017 522.134 706.063 521.386C708.972 519.451 713.909 512.148 714.349 507.839C714.707 504.327 714.485 499.294 716.438 497.173C718.642 498.972 719.59 501.921 717.766 505.437Z" fill="#2E3552"/>
<path d="M773.365 409.406H723.296L708.235 372.036H758.228L773.365 409.406Z" fill="#F99746"/>
<path d="M722.71 407.95H788.827V409.406H723.296L722.71 407.95Z" fill="#ED7D2B"/>
<path d="M735.936 390.723C735.578 389.409 736.319 388.342 737.635 388.342C738.329 388.381 738.994 388.63 739.542 389.055C740.09 389.481 740.496 390.062 740.705 390.723C741.081 392.036 740.322 393.1 739.006 393.1C738.313 393.062 737.648 392.813 737.1 392.389C736.551 391.964 736.145 391.383 735.936 390.723Z" fill="white"/>
<path d="M830.677 409.178C830.677 409.178 824.13 415.296 796.74 416.164C769.351 417.031 733.629 447.22 733.289 455.744C732.949 464.268 788.433 477.251 789.292 476.03C790.151 474.81 824.488 445.399 824.488 445.399L830.677 409.178Z" fill="#F99746"/>
<path d="M889.457 487.996C874.71 461.502 841.034 498.041 832.663 485.683C824.291 473.325 844.494 457.625 862.715 444.107C880.567 430.864 880.492 413.551 880.481 412.851C881.096 417.995 881.515 423.582 881.729 429.629C882.52 451.725 886.881 471.365 889.457 487.996Z" fill="#ED7D2B"/>
<path d="M651.405 118.034C651.614 145.751 642.061 172.661 624.412 194.067C609.766 211.862 601.516 234.048 601.516 257.079V290.277C601.516 299.33 598.285 308.087 592.4 314.979C589.078 318.912 585 322.143 580.408 324.48C575.815 326.817 570.8 328.213 565.658 328.586C564.796 328.643 563.991 328.586 563.118 328.586H501.669C500.843 328.586 499.948 328.64 499.133 328.586C479.152 327.308 463.275 310.52 463.275 290.277V257.14C463.23 234.16 455.175 211.912 440.489 194.21C422.927 172.972 413.34 146.286 413.382 118.751C413.382 52.8808 466.977 1.57298e-05 532.397 1.57298e-05C563.856 -0.061694 594.054 12.3316 616.365 34.4602C638.677 56.5889 651.278 86.6453 651.405 118.034Z" fill="#FFB93E"/>
<path d="M565.654 328.59C565.346 330.967 560.166 370.658 560.116 371.036C559.261 377.583 551.755 382.588 542.783 382.588H522.562C513.672 382.588 506.18 377.665 505.239 371.165C504.259 364.318 500.492 338.078 499.133 328.6L565.654 328.59Z" fill="#ED7D2B"/>
<path d="M557.626 328.59H546.178C527.735 333.908 509.447 339.167 500.968 341.555L501.415 344.657V344.724L501.866 347.866C508.731 345.97 525.206 341.258 565.49 329.611L565.622 328.59H557.626Z" fill="#F99746"/>
<path d="M504.055 362.919V362.99L504.51 366.146C512.448 363.918 528.837 359.231 562.928 349.368L563.379 345.945V345.917L563.822 342.515C542.278 348.755 516.194 356.251 503.612 359.82L504.055 362.919Z" fill="#F99746"/>
<path d="M511.647 379.768L511.758 379.832C513.234 380.686 514.817 381.343 516.466 381.785C525.818 379.111 539.702 375.109 560.348 369.144L560.796 365.714V365.685L561.243 362.284C542.8 367.609 521.643 373.706 508.574 377.44C509.498 378.34 510.53 379.121 511.647 379.768Z" fill="#F99746"/>
<path d="M508.327 328.59L482.608 177.112L487.917 176.216L513.783 328.59H508.327Z" fill="#FFEAC5"/>
<path d="M554.074 328.59H548.578L576.122 178.575L581.417 179.543L554.074 328.59Z" fill="#FFEAC5"/>
<path d="M546.596 204.223C545.814 204.215 545.035 204.119 544.275 203.938C542.844 203.613 541.921 202.617 541.634 201.06C541.023 197.705 543.659 191.547 547.358 186.328C545.423 182.955 542.844 180.171 540.139 179.353C536.143 178.147 530.011 181.827 525.739 186.528C526.51 187.622 527.212 188.763 527.839 189.945C530.029 194.067 531.599 199.336 529.449 201.774C528.651 202.677 527.023 203.498 523.793 202.281C519.761 200.764 518.312 197.355 519.818 192.929C520.697 190.548 521.99 188.342 523.639 186.411C520.333 182.106 515.912 178.836 511.558 179.382C509.41 179.639 507.358 180.412 505.576 181.634C508.363 186.807 509.003 193.371 507.071 196.891C505.755 199.29 503.454 200.05 500.592 199.033C498.539 198.301 497.466 195.463 497.863 191.844C498.33 187.73 500.322 183.94 503.447 181.217C502.62 179.895 501.573 178.723 500.353 177.751C492.84 171.939 486.643 178.175 486.4 178.465L485.23 177.333C485.305 177.254 492.743 169.79 501.369 176.483C502.7 177.542 503.846 178.813 504.76 180.246C506.736 178.911 509.003 178.068 511.372 177.786C516.255 177.172 521.128 180.61 524.741 185.183C529.392 180.146 536.007 176.423 540.625 177.815C543.545 178.693 546.296 181.502 548.4 184.954C550.36 182.42 552.542 180.21 554.664 178.807C558.063 176.558 560.281 177.076 561.533 177.901C562.835 178.779 563.957 179.897 564.838 181.195C565.818 180.411 566.877 179.731 567.998 179.164C571.933 177.208 575.553 177.351 578.183 179.568L577.131 180.81C574.294 178.415 570.645 179.664 568.724 180.621C567.647 181.163 566.631 181.819 565.694 182.577C568.316 187.292 568.824 193.443 567.325 196.42C566.377 198.294 564.688 198.947 562.713 198.205C559.157 196.905 558.288 194.46 558.184 192.636C557.991 189.149 560.413 185.179 563.576 182.256C562.808 181.066 561.809 180.041 560.638 179.243C559.104 178.233 557.029 179.175 555.562 180.146C553.444 181.542 551.226 183.844 549.265 186.461C551.709 191.101 552.975 196.506 552.049 199.99C551.587 201.685 550.299 204.223 546.596 204.223ZM548.213 187.921C544.994 192.615 542.718 197.916 543.237 200.771C543.402 201.674 543.845 202.178 544.632 202.356C547.824 203.07 549.784 202.149 550.46 199.593C551.247 196.638 550.231 192.022 548.213 187.921ZM524.655 187.806C523.246 189.487 522.134 191.396 521.367 193.45C520.129 197.084 521.146 199.543 524.376 200.761C525.678 201.25 527.403 201.639 528.233 200.7C529.513 199.251 528.762 195.142 526.408 190.705C525.878 189.707 525.292 188.74 524.655 187.806ZM504.288 182.655C501.604 185.096 499.898 188.425 499.487 192.026C499.186 194.796 499.87 197.052 501.147 197.505C503.218 198.237 504.724 197.773 505.647 196.109C507.3 193.093 506.703 187.289 504.288 182.655ZM564.391 183.691C561.561 186.403 559.64 189.88 559.787 192.561C559.898 194.503 561.061 195.892 563.25 196.695C564.452 197.134 565.275 196.813 565.844 195.685C567.117 193.189 566.581 187.849 564.406 183.691H564.391Z" fill="#FFEAC5"/>
<path d="M593.828 45.6665C603.612 54.8619 602.385 71.7856 589.799 75.5516C580.312 78.3895 566.162 74.5985 559.172 62.5152C552.181 50.432 555.401 40.5012 563.98 35.5573C572.559 30.6133 583.649 36.0998 593.828 45.6665Z" fill="#FFEAC5"/>
<path d="M226.739 297.555C225.598 295.356 251.682 287.435 252.097 309.146C252.097 309.146 300.963 307.95 277.63 280.771C269.552 271.365 270.386 263.583 270.626 256.344C270.865 249.104 265.595 228.054 247.507 230.174C247.507 230.174 242.771 228.25 236.86 231.31C223.416 238.267 193.3 305.562 226.739 297.555Z" fill="#163560"/>
<path d="M306.63 321.832C306.63 321.832 309.818 316.985 312.376 316.906C314.934 316.828 319.689 315.478 319.306 316.431C318.923 317.385 315.986 317.474 315.7 318.041C315.413 318.609 320.068 319.469 321.395 319.558C322.722 319.648 325.86 319.558 325.763 320.222C325.667 320.886 320.118 323.631 316.2 323.253C312.283 322.875 307.439 324.388 307.439 324.388L306.63 321.832Z" fill="#FFB27D"/>
<path d="M260.63 323.41C262.02 326.002 263.649 328.459 265.495 330.749C269.273 335.458 275.115 340.901 282.421 341.994C285.916 342.508 289.333 341.758 292.474 340.366C301.364 336.439 308.043 327.376 308.043 327.376C309.61 323.114 307.049 320.237 307.049 320.237C307.049 320.237 289.104 324.263 287.394 323.414C285.684 322.564 275.717 293.903 273.341 290.302C270.965 286.7 262.877 284.829 262.877 284.829L260.63 323.41Z" fill="#F9DDBF"/>
<path d="M265.496 330.735C269.274 335.458 275.116 340.901 282.421 341.994C285.917 342.508 289.333 341.758 292.474 340.366C292.116 340.409 283.251 341.505 279.713 335.19C276.107 328.765 272.2 318.516 266.834 321.925C264.53 323.41 264.634 327.055 265.496 330.735Z" fill="#F2CCAA"/>
<path d="M193.679 516.674C193.679 516.674 188.202 521.672 189.272 525.202C190.342 528.733 195.282 531.106 195.951 535.436C196.62 539.766 199.289 542.13 201.675 542.13H213.123C213.123 542.13 214.912 539.081 210.619 538.164C206.326 537.246 204.734 532.156 204.999 527.433C205.264 522.711 204.598 516.41 204.598 516.41L195.518 514.311L193.679 516.674Z" fill="#303139"/>
<path d="M240.027 518.791C240.027 518.791 238.056 539.913 240.46 541.094L271.227 541.03C271.227 541.03 271.227 537.489 266.283 536.7C261.338 535.911 252.663 533.027 251.192 526.598C249.722 520.169 240.027 518.791 240.027 518.791Z" fill="#303139"/>
<path d="M218.104 367.249C224.432 353.085 228.307 349.019 227.566 344.621C227.015 341.348 229.244 283.605 229.244 283.605C229.995 283.373 231.502 283.162 232.324 282.98C233.604 282.706 234.793 282.112 235.78 281.254C236.766 280.396 237.519 279.303 237.966 278.076C239.04 275.063 239.898 270.619 239.88 265.046L240.689 265.207L254.327 267.898C254.327 267.898 254.015 272.182 254.008 276.216C254.008 276.248 254.008 276.284 254.008 276.316C253.998 278.02 254.546 279.681 255.568 281.047C256.59 282.413 258.031 283.409 259.671 283.883C261.392 284.38 262.891 284.801 262.891 284.801C262.891 284.801 267.9 299.079 268.855 313.715C269.81 328.35 259.75 334.733 268.93 364.018C278.3 393.939 214.605 375.077 218.104 367.249Z" fill="#FFB27D"/>
<path d="M254.326 267.909C254.326 267.909 254.015 272.193 254.008 276.226C246.377 276.012 242.341 269.066 240.688 265.218L254.326 267.909Z" fill="#E8945B"/>
<path d="M256.87 271.729C256.87 271.729 238.817 272.029 238.803 260.806C238.789 249.583 236.453 242.065 247.98 241.401C259.507 240.737 261.75 245.017 262.669 248.762C263.589 252.506 261.571 271.365 256.87 271.729Z" fill="#FFB27D"/>
<path d="M256.204 241.126C256.204 241.126 251.264 254.291 243.683 256.236C236.102 258.182 232.807 256.158 232.807 256.158C232.807 256.158 238.624 251.546 239.833 243.493C239.826 243.493 252.477 234.861 256.204 241.126Z" fill="#163560"/>
<path d="M254.981 242.197C254.981 242.197 258.648 243.564 260.154 246.231C261.977 249.346 262.827 252.933 262.594 256.533C262.594 256.533 266.318 247.584 262.132 242.522C257.696 237.157 254.981 242.197 254.981 242.197Z" fill="#163560"/>
<path d="M252.935 264.768C253.398 265.295 253.978 265.707 254.629 265.972C255.279 266.238 255.983 266.348 256.684 266.296C257.268 266.263 257.834 266.076 258.323 265.754C258.811 265.432 259.206 264.988 259.467 264.464C259.467 264.464 255.797 263.568 252.935 264.768Z" fill="#EBF3FA"/>
<path d="M216.361 309.131C216.084 313.857 216.084 318.595 216.361 323.321C216.665 328.45 221.863 335.322 222.604 337.021C224.454 341.305 226.539 341.979 226.539 341.979L242.692 345.931L248.377 347.327L266.286 341.972C266.286 341.972 274.443 319.251 271.17 306.461C267.896 293.671 262.887 284.79 262.887 284.79C262.887 284.79 248.273 299.069 229.258 283.58L216.361 309.131Z" fill="#F9DDBF"/>
<path d="M221.094 325.43C221.398 330.56 221.871 335.336 222.611 337.035C224.461 341.319 226.546 341.994 226.546 341.994L242.699 345.945L249.715 343.886C249.715 343.886 226.296 340.344 228.89 320.24L221.094 325.43Z" fill="#F2CCAA"/>
<path d="M265.149 345.442C265.149 345.442 274.017 372.989 274.586 382.37C275.155 391.751 257.632 515.607 256.927 519.926C256.262 523.999 251.203 526.598 251.203 526.598C251.203 526.598 248.871 527.969 245.543 527.034C240.925 525.731 239.462 524.178 239.462 524.178C239.462 524.178 232.542 435.854 236.836 404.284C239.436 384.772 240.879 365.124 241.157 345.442H265.149Z" fill="#ED7D2B"/>
<path d="M227.566 344.621C227.566 344.621 214.035 362.733 212.776 374.963C211.517 387.193 210.798 430.221 208.125 442.158C205.453 454.095 195.564 477.066 195.564 514.297C195.564 514.297 196.591 516.439 199.757 517.567C200.967 517.974 202.198 518.314 203.446 518.584C204.716 518.874 206.047 518.729 207.224 518.172C208.402 517.615 209.357 516.679 209.936 515.514C216.611 502.103 237.873 458.853 238.964 449.876C239.733 443.522 246.448 401.471 261.091 376.798C264.608 370.872 258.945 347.316 258.945 347.316L227.566 344.621Z" fill="#F99746"/>
<path d="M253.346 265.068C253.346 265.068 253.657 266.392 256.956 266.189C256.956 266.189 259.725 266.017 259.639 264.564C259.639 264.564 256.956 263.529 253.346 265.068Z" fill="white"/>
<path d="M266.565 341.191C266.565 341.191 262.987 344 255.929 344.143C247.479 344.31 226.543 342.001 226.543 342.001C225.967 343.718 225.666 345.516 225.652 347.327C225.652 347.327 251.221 353.752 266.039 348.269C266.039 348.266 267.96 344.678 266.565 341.191Z" fill="#303139"/>
<path d="M254.101 347.052C254.101 344.653 255.829 342.7 257.958 342.7C260.086 342.7 261.811 344.653 261.811 347.052C261.811 349.451 260.09 351.407 257.943 351.407C255.797 351.407 254.101 349.468 254.101 347.052ZM255.378 347.052C255.378 348.751 256.534 350.132 257.958 350.132C259.382 350.132 260.533 348.751 260.533 347.052C260.533 345.353 259.378 343.975 257.958 343.975C256.537 343.975 255.378 345.356 255.378 347.052Z" fill="white"/>
<path d="M199.031 346.176L225.229 368.938L256.455 333.159L230.258 310.396L199.031 346.176Z" fill="#B5453C"/>
<path d="M232.453 346.256C232.453 346.256 242.052 347.377 242.019 349.651C241.987 351.924 239.629 356.594 238.442 356.79C237.254 356.986 230.632 350.475 230.632 350.475L232.453 346.256Z" fill="#FFB27D"/>
<path d="M229.244 283.601C229.244 283.601 216.443 284.501 211.513 296.413C206.583 308.325 197.282 328.336 197.282 331.702C197.282 335.068 202.487 345.442 230.449 351.407C230.449 351.407 233.34 348.373 233.165 345.97C233.165 345.97 215.713 331.013 215.76 329.264C215.846 325.955 218.622 321.589 233.945 306.294C238.113 302.135 229.244 283.601 229.244 283.601Z" fill="#F9DDBF"/>
<path d="M340.049 541.476H339.927C339.757 541.477 339.589 541.443 339.432 541.378C339.276 541.312 339.134 541.216 339.015 541.095C338.896 540.974 338.803 540.83 338.741 540.673C338.679 540.515 338.649 540.346 338.653 540.177L340.585 456.533L346.284 455.869L341.426 540.18C341.405 540.531 341.251 540.86 340.995 541.101C340.739 541.342 340.4 541.476 340.049 541.476Z" fill="#95C0F4"/>
<path d="M431.66 541.476H431.781C431.951 541.476 432.119 541.442 432.276 541.377C432.433 541.311 432.574 541.215 432.693 541.094C432.812 540.973 432.906 540.83 432.969 540.672C433.031 540.515 433.062 540.346 433.058 540.177L431.123 456.533L425.424 455.869L430.282 540.18C430.303 540.531 430.457 540.86 430.713 541.101C430.969 541.342 431.308 541.476 431.66 541.476Z" fill="#B0D4FF"/>
<path d="M336.292 451.346V394.032C336.292 389.189 338.22 384.545 341.652 381.12C345.083 377.695 349.738 375.771 354.591 375.77H395.98C400.834 375.771 405.488 377.695 408.92 381.12C412.352 384.545 414.28 389.189 414.28 394.032V453.538L336.292 451.346Z" fill="#B0D4FF"/>
<path d="M336.274 451.346H421.678V460.395H341.769C340.312 460.395 338.914 459.818 337.884 458.789C336.853 457.761 336.274 456.366 336.274 454.912V451.343V451.346Z" fill="#95C0F4"/>
<path d="M431.252 451.346H370.801C368.557 451.346 366.737 453.162 366.737 455.401V456.34C366.737 458.58 368.557 460.395 370.801 460.395H431.252C433.496 460.395 435.316 458.58 435.316 456.34V455.401C435.316 453.162 433.496 451.346 431.252 451.346Z" fill="#B0D4FF"/>
<path d="M428.905 437.064C422.977 447.363 415.521 451.343 415.521 451.343H384.496C384.496 451.343 433.43 429.211 428.905 437.064Z" fill="#303139"/>
<path d="M405.078 516.728C404.707 517.134 404.461 517.639 404.37 518.182C404.279 518.725 404.347 519.282 404.567 519.787C405.307 521.829 407.754 524.106 410.591 526.384C410.956 526.672 411.278 526.939 411.557 527.187C411.632 527.251 411.707 527.315 411.775 527.38L411.943 527.53C414.591 529.968 413.593 530.525 418.351 535.465C423.775 541.098 427.51 541.198 428.572 540.687C429.47 540.248 427.645 537.26 425.621 533.905L425.327 533.416L424.522 532.067C422.15 528.029 422.759 526.134 423.324 520.119C423.778 515.236 430.94 492.826 430.94 492.826L420.544 491.041C420.544 491.041 417.414 508.889 413.965 511.634C412.122 513.098 410.058 513.119 408.284 514.204C408.158 514.279 408.037 514.358 407.926 514.436C406.878 515.07 405.921 515.841 405.078 516.728Z" fill="#FFB27D"/>
<path d="M405.078 516.728C404.707 517.134 404.461 517.639 404.37 518.182C404.279 518.725 404.347 519.282 404.567 519.787C405.475 521.825 407.858 524.096 410.602 526.362C410.96 526.659 411.278 526.93 411.557 527.187C411.632 527.251 411.707 527.315 411.775 527.38L411.944 527.53C414.591 529.968 413.593 530.525 418.351 535.465C423.775 541.098 427.51 541.198 428.572 540.687C429.47 540.248 427.646 537.26 425.621 533.905C421.83 532.426 418.497 529.975 415.961 526.798C412.695 522.639 410.516 517.295 408.291 514.201C408.166 514.276 408.044 514.354 407.933 514.433C406.883 515.067 405.923 515.839 405.078 516.728Z" fill="#303139"/>
<path d="M488.897 510.249C489.538 513.462 494.113 512.916 499.222 511.677C504.331 510.438 503.118 511.912 510.391 511.109C517.664 510.306 519.865 507.6 520.086 506.522C520.287 505.566 516.691 505.226 512.838 504.784C512.352 504.73 511.865 504.67 511.379 504.609C507.028 504.066 503.841 501.264 499.888 498.962C496.145 496.784 490.557 487.896 490.557 487.896L480.583 488.685C480.583 488.685 485.817 496.616 487.842 500.065C489.033 502.092 488.969 504.773 488.819 506.847C488.693 507.98 488.72 509.124 488.897 510.249Z" fill="#FFB27D"/>
<path d="M499.222 511.67C504.331 510.424 503.118 511.905 510.391 511.102C517.664 510.299 519.865 507.593 520.086 506.515C520.287 505.558 516.691 505.219 512.838 504.777L512.803 504.852C509.685 506.84 506.087 507.95 502.388 508.064C497.451 508.182 492.228 506.772 488.818 506.826C488.693 507.959 488.719 509.104 488.897 510.231C489.538 513.451 494.113 512.915 499.222 511.67Z" fill="#303139"/>
<path d="M450.674 446.616L441.351 471.65L429.187 504.334C427.014 504.497 424.828 504.298 422.719 503.745C419.807 502.906 416.466 500.707 416.466 500.707C416.466 500.707 419.846 465.614 426.15 445.467C427.767 440.298 429.577 436.114 431.577 433.759C441.344 422.236 450.674 446.616 450.674 446.616Z" fill="#303139"/>
<path d="M441.197 406.865C435.087 404.898 417.668 407.422 400.166 410.838L396.503 404.798L358.702 401.853C358.702 401.853 346.231 429.454 353.06 447.038C354.062 449.622 356.058 451.282 359.457 451.321H360.008H389.813C408.609 451.321 429.595 438.428 432.311 437.889C436.754 437 438.528 445.867 442.972 455.18C447.415 464.493 484.74 496.41 484.74 496.41C484.74 496.41 490.464 496.467 492.847 495.581C495.398 494.628 496.328 493.39 496.328 493.39C496.328 493.39 454.971 411.298 441.197 406.865Z" fill="#2B478B"/>
<path d="M395.014 294.989C390.174 292.45 382.804 292.108 381.609 291.947C367.299 290.027 358.663 310.795 358.158 317.088C357.225 328.686 351.075 330.453 342.417 337.717C325.062 352.281 330.153 369.209 339.641 375.495C345.336 379.268 355.382 375.495 355.382 375.495C355.525 375.595 382.833 360.263 396.292 352.87C416.458 350.007 407.354 301.453 395.014 294.989Z" fill="#B5453C"/>
<path d="M384.997 346.574C385.058 346.613 378.375 348.89 373.907 346.931C369.703 345.074 366.519 338.174 366.583 338.171C368.494 338.085 370.594 336.414 372.211 325.47L373.027 325.763L386.714 330.678C386.714 330.678 385.723 335.061 385.083 339.245C384.543 342.722 384.25 346.081 384.997 346.574Z" fill="#FFB27D"/>
<path d="M386.714 330.664C386.714 330.664 385.723 335.047 385.083 339.231C377.212 337.803 374.132 330 373.027 325.759L386.714 330.664Z" fill="#ED975D"/>
<path d="M388.754 335.015C388.754 335.015 370.025 332.516 371.768 320.89C373.51 309.264 372.272 301.132 384.289 302.242C396.306 303.352 397.973 308.132 398.338 312.148C398.703 316.164 393.669 335.368 388.754 335.015Z" fill="#FFB27D"/>
<path d="M397.669 305.783C397.669 305.783 385.677 316.092 377.524 316.924C369.37 317.756 366.279 315.139 366.279 315.139C369.534 312.233 372.155 308.69 373.978 304.73C374.393 303.798 375.05 302.993 375.882 302.4C376.714 301.806 377.689 301.446 378.708 301.357C384.532 300.857 395.569 300.629 397.669 305.783Z" fill="#B5453C"/>
<path d="M390.174 304.848C390.174 304.848 394.185 308.717 395.447 311.587C396.667 314.357 397.032 320.983 396.063 323.614C396.063 323.614 402.313 311.477 398.775 305.598C395.022 299.361 390.174 304.848 390.174 304.848Z" fill="#B5453C"/>
<path d="M400.771 374.099C400.206 411.937 400.613 404.024 396.478 407.615C395.48 408.478 392.671 408.992 388.965 409.235C377.338 410.006 356.903 408.093 356.126 405.951C353.443 398.533 355.336 396.227 353.1 384.89C352.867 383.684 352.577 382.391 352.237 380.964C350.374 373.164 348.556 370.508 355.175 357.979C361.178 346.627 367.414 337.414 367.972 337.746C383.806 347.127 385.083 339.241 385.083 339.241C385.083 339.241 401.046 355.651 400.771 374.099Z" fill="#F9DDBF"/>
<path d="M441.351 471.65L429.187 504.334C427.014 504.497 424.828 504.298 422.719 503.745C419.807 502.906 416.466 500.707 416.466 500.707C416.466 500.707 419.846 465.614 426.15 445.467L441.351 471.65Z" fill="#2B478B"/>
<path d="M385.083 339.22C385.083 339.22 401.375 341.976 403.286 348.976C405.196 355.976 416.458 397.123 416.458 397.123C416.458 397.123 408.176 398.608 404.352 394.789C400.527 390.969 391.036 359.367 391.036 359.367L385.083 339.22Z" fill="#F9DDBF"/>
<path d="M388.961 409.242C377.334 410.013 356.899 408.1 356.123 405.958C353.439 398.54 355.332 396.235 353.096 384.897L358.702 369.144C358.702 369.144 357.775 386.686 362.963 391.301C368.15 395.917 384.192 400.207 386.714 404.066C387.927 405.898 388.729 407.754 388.961 409.242Z" fill="#F2CCAA"/>
<path d="M375.646 401.864C375.646 401.864 387.115 399.315 388.965 400.332C390.814 401.35 395.34 405.044 395.905 406.333C396.471 407.622 391.784 405.355 390.26 404.948C389.272 404.684 386.682 405.583 385.387 406.019C379.974 407.804 376.658 406.893 376.658 406.893L375.646 401.864Z" fill="#FFB27D"/>
<path d="M367.961 337.717C367.961 337.717 352.577 338.663 347.229 346.085C339.716 356.529 324.837 401.057 333.369 406.976C342.975 413.658 377.098 408.725 377.098 408.725C377.098 408.725 378.236 403.427 376.654 400.871C375.073 398.316 349.4 394.171 348.216 392.99C347.032 391.808 363.027 369.933 363.027 366.389C363.027 362.844 367.961 337.717 367.961 337.717Z" fill="#F9DDBF"/>
<path d="M389.516 403.516C389.516 403.516 391.92 406.611 392.707 406.979C393.105 407.193 393.555 407.289 394.006 407.257L392.385 404.348L389.516 403.516Z" fill="#FFB27D"/>
<path d="M388.961 400.333L395.948 403.716C395.812 403.885 395.633 404.015 395.43 404.094C395.227 404.172 395.008 404.196 394.793 404.163C393.93 404.123 391.759 403.331 391.759 403.331L388.961 400.333Z" fill="#FFB27D"/>
<path d="M392.707 411.716H447.977L464.606 370.465H409.418L392.707 411.716Z" fill="#F99746"/>
<path d="M448.624 410.11H375.642V411.716H447.977L448.624 410.11Z" fill="#ED7D2B"/>
<path d="M434.024 391.091C434.443 389.641 433.602 388.463 432.15 388.463C431.385 388.507 430.651 388.781 430.046 389.25C429.441 389.72 428.993 390.361 428.762 391.091C428.347 392.54 429.187 393.718 430.64 393.718C431.405 393.675 432.138 393.4 432.743 392.931C433.348 392.462 433.795 391.82 434.024 391.091Z" fill="white"/>
<path d="M567.837 542.626H567.998C568.234 542.613 568.465 542.553 568.677 542.45C568.89 542.347 569.08 542.203 569.237 542.027C569.394 541.85 569.514 541.644 569.59 541.421C569.667 541.198 569.698 540.962 569.683 540.727L567.128 418.688L559.594 417.72L566.016 540.737C566.02 541.225 566.211 541.692 566.549 542.043C566.888 542.395 567.349 542.603 567.837 542.626Z" fill="#303139"/>
<path d="M377.474 542.626H377.313C377.076 542.613 376.845 542.554 376.632 542.451C376.419 542.348 376.228 542.205 376.071 542.028C375.914 541.851 375.793 541.645 375.717 541.422C375.64 541.199 375.608 540.962 375.624 540.727L378.182 418.688L385.716 417.72L379.277 540.737C379.274 541.222 379.086 541.687 378.75 542.038C378.415 542.389 377.959 542.599 377.474 542.626Z" fill="#303139"/>
<path d="M580.208 411.716H367.932C366.249 411.716 364.884 413.078 364.884 414.757V417.406C364.884 419.086 366.249 420.447 367.932 420.447H580.208C581.891 420.447 583.256 419.086 583.256 417.406V414.757C583.256 413.078 581.891 411.716 580.208 411.716Z" fill="#303139"/>
<path d="M1004.65 540.266H1.34875C0.603854 540.266 0 540.869 0 541.612V542.654C0 543.398 0.603854 544 1.34875 544H1004.65C1005.4 544 1006 543.398 1006 542.654V541.612C1006 540.869 1005.4 540.266 1004.65 540.266Z" fill="#2E3552"/>
<path d="M733.428 75.9621L774.867 82.5053L747.595 63.3398L746.1 69.3297L735.975 71.0003L733.428 75.9621Z" fill="#9EC3F6"/>
<path d="M774.867 82.5053L740.58 64.2001L706.732 61.9834L774.867 82.5053Z" fill="white"/>
<path d="M747.595 63.3398L774.867 82.5053L753.981 52.8879L747.595 63.3398Z" fill="white"/>
<path d="M335.999 116.592L282.045 132.066L315.109 102.153L318.079 109.859L331.802 110.42L335.999 116.592Z" fill="#9EC3F6"/>
<path d="M282.045 132.066L324.568 102.145L369.149 93.6604L282.045 132.066Z" fill="#EBF3FA"/>
<path d="M315.109 102.153L282.045 132.066L304.91 89.3162L315.109 102.153Z" fill="#EBF3FA"/>
</svg>
