<?xml version="1.0" standalone="no"?>
<!DOCTYPE svg PUBLIC "-//W3C//DTD SVG 1.1//EN" "http://www.w3.org/Graphics/SVG/1.1/DTD/svg11.dtd" >
<svg xmlns="http://www.w3.org/2000/svg">
<metadata>Generated by IcoMoon</metadata>
<defs>
<font id="iconfont" horiz-adv-x="1024">
<font-face units-per-em="1024" ascent="960" descent="-64" />
<missing-glyph horiz-adv-x="1024" />
<glyph unicode="&#x20;" horiz-adv-x="512" d="" />
<glyph unicode="&#xe900;" glyph-name="add" d="M469.342 490.654v298.682h85.323v-298.682h298.68v-85.319h-298.68v-298.685h-85.323v298.685h-298.682v85.319h298.682z" />
<glyph unicode="&#xe901;" glyph-name="arrow-down" d="M511.931 397.993l211.197 211.201 60.334-60.331-271.532-271.533-271.531 271.533 60.331 60.331 211.2-211.201z" />
<glyph unicode="&#xe902;" glyph-name="arrow-left" d="M471.5 447.99l211.201 211.2-60.329 60.33-271.533-271.53 271.533-271.529 60.329 60.329-211.201 211.2z" />
<glyph unicode="&#xe903;" glyph-name="arrow-right" d="M562.002 447.99l-211.202 211.202 60.331 60.33 271.529-271.532-271.529-271.529-60.331 60.329 211.202 211.2z" />
<glyph unicode="&#xe904;" glyph-name="arrow-up" d="M512.072 498.006l-211.203-211.199-60.33 60.329 271.533 271.532 271.529-271.532-60.329-60.329-211.2 211.199z" />
<glyph unicode="&#xe905;" glyph-name="close" d="M512.031 508.325l211.2 211.2 60.329-60.33-211.2-211.199 211.2-211.2-60.329-60.329-211.2 211.2-211.2-211.2-60.33 60.329 211.2 211.2-211.2 211.199 60.33 60.33 211.2-211.2z" />
<glyph unicode="&#xe906;" glyph-name="error" d="M511.967 21.33c-235.648 0-426.666 191.022-426.666 426.67s191.018 426.665 426.666 426.665c235.645 0 426.668-191.018 426.668-426.665s-191.022-426.67-426.668-426.67zM469.3 320v-85.335h85.334v85.335h-85.334zM469.3 661.332v-256.003h85.334v256.003h-85.334z" />
<glyph unicode="&#xe907;" glyph-name="info" d="M511.967 21.33c-235.648 0-426.666 191.022-426.666 426.67s191.018 426.665 426.666 426.665c235.645 0 426.668-191.018 426.668-426.665s-191.022-426.67-426.668-426.67zM469.3 490.665v-256.001h85.334v256.001h-85.334zM469.3 661.332v-85.334h85.334v85.334h-85.334z" />
<glyph unicode="&#xe908;" glyph-name="calendar" d="M725.402 832.001h170.665c11.315 0 22.17-4.495 30.172-12.497 7.997-8.002 12.493-18.854 12.493-30.17v-682.664c0-11.32-4.495-22.17-12.493-30.172-8.003-8.003-18.857-12.498-30.172-12.498h-768c-11.316 0-22.168 4.495-30.17 12.498s-12.497 18.852-12.497 30.172v682.664c0 11.316 4.495 22.168 12.497 30.17s18.854 12.497 30.17 12.497h170.667v85.333h85.333v-85.333h256v85.333h85.335v-85.333zM853.402 490.668h-682.668v-341.332h682.668v341.332zM640.067 746.668h-256v-85.333h-85.333v85.333h-128v-170.666h682.668v170.666h-128v-85.333h-85.335v85.333zM256.067 405.335h85.334v-85.335h-85.334v85.335zM469.4 405.335h85.331v-85.335h-85.331v85.335zM682.732 405.335h85.335v-85.335h-85.335v85.335z" />
<glyph unicode="&#xe909;" glyph-name="camera" d="M436.394 772.266l-85.333-85.333h-163.328v-511.998h682.666v511.998h-163.328l-85.335 85.333h-185.342zM401.066 857.6h255.998l85.335-85.334h170.665c11.315 0 22.17-4.495 30.172-12.496s12.498-18.854 12.498-30.17v-597.335c0-11.315-4.495-22.164-12.498-30.167s-18.857-12.498-30.172-12.498h-767.998c-11.316 0-22.168 4.495-30.17 12.498s-12.497 18.852-12.497 30.167v597.335c0 11.316 4.495 22.169 12.497 30.17s18.854 12.496 30.17 12.496h170.667l85.333 85.334zM529.065 217.6c-62.236 0-121.924 24.724-165.933 68.731-44.008 44.012-68.732 103.7-68.732 165.936 0 62.238 24.724 121.926 68.732 165.935s103.697 68.732 165.933 68.732c62.239 0 121.928-24.724 165.934-68.732 44.012-44.008 68.736-103.697 68.736-165.935 0-62.235-24.724-121.924-68.736-165.936-44.006-44.006-103.695-68.731-165.934-68.731zM529.065 302.935c39.608 0 77.588 15.734 105.595 43.735 28.006 28.006 43.74 65.992 43.74 105.596 0 39.606-15.734 77.59-43.74 105.595s-65.987 43.739-105.595 43.739c-39.604 0-77.587-15.733-105.593-43.739s-43.739-65.989-43.739-105.595c0-39.605 15.733-77.59 43.739-105.596 28.005-28.001 65.989-43.735 105.593-43.735v0z" />
<glyph unicode="&#xe90a;" glyph-name="comment" d="M102.4 601.855c-0.023 33.613 6.586 66.9 19.446 97.955s31.72 59.269 55.5 83.024c23.78 23.756 52.012 42.588 83.080 55.417s64.362 19.404 97.974 19.348h341.335c141.353 0 256-114.986 256-255.744v-512.255h-597.335c-141.354 0-256 114.985-256 255.744v256.511zM870.4 174.935v426.92c-0.113 45.206-18.14 88.523-50.125 120.464-31.99 31.941-75.336 49.902-120.54 49.947h-341.335c-22.406 0.056-44.603-4.312-65.318-12.852s-39.54-21.087-55.396-36.919c-15.856-15.832-28.43-34.638-37.002-55.34s-12.973-42.893-12.95-65.299v-256.511c0.113-45.204 18.138-88.525 50.127-120.463 31.989-31.944 75.334-49.905 120.539-49.946h512zM614.4 516.266h85.335v-85.331h-85.335v85.331zM358.4 516.266h85.334v-85.331h-85.334v85.331z" />
<glyph unicode="&#xe90b;" glyph-name="copy" d="M301.511 652.8v115.2c0 10.184 3.896 19.952 10.83 27.153s16.34 11.247 26.147 11.247h443.735c9.805 0 19.21-4.046 26.148-11.247 6.932-7.201 10.829-16.969 10.829-27.153v-537.6c0-10.184-3.896-19.953-10.829-27.151-6.938-7.204-16.343-11.249-26.148-11.249h-110.935v-115.2c0-21.197-16.64-38.4-37.238-38.4h-443.214c-4.876-0.031-9.711 0.942-14.224 2.857s-8.62 4.736-12.080 8.305c-3.46 3.569-6.207 7.813-8.083 12.488s-2.845 9.687-2.849 14.751l0.111 537.6c0 21.197 16.64 38.4 37.236 38.4h110.564zM227.666 576l-0.111-460.8h369.78v460.8h-369.669zM375.466 652.8h295.822v-384h73.958v460.8h-369.78v-76.8z" />
<glyph unicode="&#xe90c;" glyph-name="edit" d="M548.48 653.681l169.201-169.24-394.88-394.841h-169.201v169.242l394.88 394.84zM604.882 710.082l84.598 84.64c7.48 7.477 17.623 11.678 28.201 11.678s20.721-4.201 28.201-11.678l112.84-112.84c7.48-7.48 11.679-17.624 11.679-28.2s-4.198-20.72-11.679-28.2l-84.639-84.6-169.201 169.201z" />
<glyph unicode="&#xe90d;" glyph-name="emoji" d="M486.4 38.4c-212.083 0-384 171.919-384 384 0 212.083 171.917 384 384 384 212.081 0 384-171.917 384-384 0-212.081-171.919-384-384-384zM486.4 115.2c81.475 0 159.611 32.364 217.221 89.979 57.615 57.61 89.979 135.747 89.979 217.221s-32.364 159.612-89.979 217.223c-57.61 57.611-135.747 89.977-217.221 89.977s-159.612-32.366-217.223-89.977c-57.611-57.611-89.977-135.749-89.977-217.223s32.366-159.611 89.977-217.221c57.611-57.615 135.749-89.979 217.223-89.979v0zM294.4 384h76.8c0-30.551 12.137-59.853 33.741-81.459 21.604-21.601 50.906-33.741 81.459-33.741 30.551 0 59.853 12.14 81.459 33.741 21.601 21.606 33.741 50.908 33.741 81.459h76.8c0-50.924-20.229-99.758-56.233-135.767-36.009-36.004-84.844-56.233-135.767-56.233-50.921 0-99.758 20.229-135.764 56.233-36.007 36.009-56.236 84.844-56.236 135.767v0zM332.8 460.8c-15.277 0-29.927 6.069-40.73 16.87s-16.87 25.453-16.87 40.73c0 15.277 6.069 29.927 16.87 40.73s25.453 16.87 40.73 16.87c15.277 0 29.927-6.069 40.73-16.87s16.87-25.453 16.87-40.73c0-15.277-6.069-29.927-16.87-40.73s-25.453-16.87-40.73-16.87zM640 460.8c-15.278 0-29.926 6.069-40.73 16.87s-16.87 25.453-16.87 40.73c0 15.277 6.067 29.927 16.87 40.73s25.452 16.87 40.73 16.87c15.278 0 29.926-6.069 40.73-16.87s16.87-25.453 16.87-40.73c0-15.277-6.067-29.927-16.87-40.73s-25.452-16.87-40.73-16.87z" />
<glyph unicode="&#xe90e;" glyph-name="file" d="M850.678 589.654c-0.466 1.365-0.85 2.688-1.408 4.010-2.022 4.631-4.854 8.864-8.361 12.502l-256 256c-3.64 3.508-7.869 6.34-12.503 8.362-1.28 0.598-2.642 0.938-4.009 1.408-3.569 1.215-7.286 1.947-11.049 2.176-0.942 0.086-1.751 0.554-2.647 0.554h-298.668c-47.062 0-85.334-38.272-85.334-85.333v-682.669c0-47.058 38.272-85.33 85.334-85.33h512.003c47.058 0 85.33 38.272 85.33 85.33v469.336c0 0.896-0.466 1.706-0.553 2.646-0.22 3.748-0.937 7.45-2.135 11.008zM707.702 618.667h-110.336v110.336l110.336-110.336zM256.033 106.665v682.669h256.003v-213.334c0-11.316 4.49-22.168 12.493-30.17s18.857-12.496 30.172-12.496h213.335l0.082-426.669h-512.084z" />
<glyph unicode="&#xe90f;" glyph-name="filter" d="M280.32 174.828c8.815 24.986 25.162 46.618 46.788 61.921 21.626 15.299 47.466 23.516 73.958 23.516s52.333-8.218 73.958-23.516c21.626-15.304 37.974-36.936 46.79-61.921h433.92v-85.33h-433.92c-8.817-24.986-25.164-46.618-46.79-61.921s-47.466-23.521-73.958-23.521c-26.492 0-52.332 8.218-73.958 23.521s-37.973 36.936-46.788 61.921h-177.92v85.33h177.92zM536.32 473.496c8.817 24.983 25.16 46.616 46.787 61.918s47.468 23.52 73.958 23.52c26.496 0 52.337-8.218 73.958-23.52 21.627-15.302 37.975-36.936 46.792-61.918h177.92v-85.333h-177.92c-8.817-24.986-25.165-46.618-46.792-61.921-21.622-15.299-47.462-23.516-73.958-23.516-26.491 0-52.332 8.218-73.958 23.516-21.627 15.304-37.97 36.936-46.787 61.921h-433.92v85.333h433.92zM280.32 772.162c8.815 24.983 25.162 46.616 46.788 61.918s47.466 23.52 73.958 23.52c26.492 0 52.333-8.218 73.958-23.52s37.974-36.935 46.79-61.918h433.92v-85.334h-433.92c-8.817-24.983-25.164-46.616-46.79-61.918s-47.466-23.519-73.958-23.519c-26.492 0-52.332 8.217-73.958 23.519s-37.973 36.936-46.788 61.918h-177.92v85.334h177.92z" />
<glyph unicode="&#xe910;" glyph-name="graphic" d="M128 448h170.666v-384h-170.666v384zM725.335 618.665h170.665v-554.665h-170.665v554.665zM426.666 874.665h170.669v-810.665h-170.669v810.665z" />
<glyph unicode="&#xe911;" glyph-name="change" d="M763.766 342.077c22.149 52.623 27.249 110.863 14.582 166.535-12.672 55.671-42.465 105.971-85.202 143.83s-96.266 61.371-153.057 67.232c-56.794 5.861-113.995-6.225-163.563-34.558l-33.86 59.29c51.802 29.607 110.462 45.112 170.128 44.968 59.663-0.144 118.252-15.931 169.907-45.787 153.257-88.474 211.968-277.914 140.529-435.885l45.804-26.419-142.162-75.571-5.632 160.906 42.527-24.54zM260.301 553.908c-22.148-52.623-27.246-110.864-14.578-166.534 12.668-55.675 42.465-105.974 85.202-143.831s96.265-61.373 153.057-67.231c56.792-5.862 113.992 6.221 163.559 34.555l33.864-59.29c-51.804-29.604-110.464-45.112-170.128-44.969-59.666 0.143-118.25 15.933-169.909 45.788-153.258 88.474-211.968 277.914-140.527 435.884l-45.841 26.385 142.166 75.571 5.632-160.905-42.53 24.542 0.034 0.034z" />
<glyph unicode="&#xe912;" glyph-name="more" d="M307.2 448c0-28.278-22.923-51.2-51.2-51.2s-51.2 22.922-51.2 51.2c0 28.277 22.923 51.2 51.2 51.2s51.2-22.923 51.2-51.2zM563.2 448c0-28.278-22.922-51.2-51.2-51.2-28.277 0-51.2 22.922-51.2 51.2 0 28.277 22.923 51.2 51.2 51.2s51.2-22.923 51.2-51.2zM819.2 448c0-28.278-22.922-51.2-51.2-51.2s-51.2 22.922-51.2 51.2c0 28.277 22.922 51.2 51.2 51.2s51.2-22.923 51.2-51.2z" />
<glyph unicode="&#xe913;" glyph-name="notifications" d="M273.066 260.265h477.869v237.877c0 132.54-106.977 239.992-238.935 239.992s-238.934-107.452-238.934-239.992v-237.877zM512 806.4c169.641 0 307.2-138.001 307.2-308.258v-306.142h-614.4v306.142c0 170.257 137.558 308.258 307.2 308.258zM426.666 157.865h170.669c0-22.63-8.991-44.334-24.996-60.339-16-16-37.709-24.991-60.339-24.991-22.632 0-44.337 8.991-60.34 24.991-16.003 16.005-24.994 37.709-24.994 60.339v0z" />
<glyph unicode="&#xe914;" glyph-name="password-hide" d="M398.616 158.633l-82.39 22.103 33.579 125.394c-50.263 18.54-96.976 45.553-138.112 79.872l-91.862-91.904-60.374 60.375 91.904 91.863c-51.879 62.132-86.737 136.67-101.163 216.318l83.968 15.318c32.384-179.286 189.226-315.307 377.858-315.307 188.585 0 345.472 136.022 377.856 315.307l83.968-15.274c-14.408-79.66-49.249-154.213-101.12-216.361l91.858-91.863-60.37-60.375-91.863 91.904c-41.134-34.319-87.849-61.332-138.112-79.872l33.577-125.44-82.386-22.057-33.623 125.44c-52.808-9.047-106.767-9.047-159.573 0l-33.622-125.44z" />
<glyph unicode="&#xe915;" glyph-name="password-show" d="M512.010 832c230.057 0 421.463-165.546 461.609-384-40.105-218.455-231.552-384-461.609-384-230.058 0-421.461 165.545-461.61 384 40.107 218.454 231.552 384 461.61 384zM512.010 149.335c87.020 0.015 171.453 29.573 239.483 83.83s115.63 130.002 135.004 214.835c-19.446 84.766-67.077 160.426-135.101 214.612s-152.417 83.69-239.386 83.69c-86.967 0-171.362-29.505-239.386-83.69s-115.653-129.847-135.099-214.612c19.375-84.833 66.973-160.579 135.004-214.835s152.464-83.814 239.481-83.83v0zM512.010 256c-50.921 0-99.757 20.229-135.764 56.238-36.007 36.004-56.236 84.838-56.236 135.762 0 50.921 20.229 99.758 56.236 135.764s84.843 56.236 135.764 56.236c50.924 0 99.758-20.229 135.767-56.236 36.004-36.007 56.233-84.843 56.233-135.764 0-50.924-20.229-99.758-56.233-135.762-36.009-36.009-84.844-56.238-135.767-56.238zM512.010 341.335c28.288 0 55.419 11.238 75.423 31.242s31.242 47.135 31.242 75.423c0 28.29-11.238 55.421-31.242 75.425s-47.135 31.242-75.423 31.242c-28.29 0-55.42-11.238-75.424-31.242s-31.242-47.135-31.242-75.425c0-28.288 11.238-55.419 31.242-75.423s47.135-31.242 75.424-31.242z" />
<glyph unicode="&#xe916;" glyph-name="check" d="M512.067 21.33c-235.648 0-426.666 191.022-426.666 426.67s191.018 426.665 426.666 426.665 426.665-191.018 426.665-426.665c0-235.648-191.017-426.67-426.665-426.67zM469.528 277.33l301.651 301.699-60.329 60.33-241.322-241.366-120.704 120.705-60.33-60.33 181.034-181.037z" />
<glyph unicode="&#xe917;" glyph-name="payments" d="M986.066 542.815v-474.076c0-12.572-4.995-24.627-13.887-33.519s-20.946-13.887-33.525-13.887h-853.331c-12.574 0-24.632 4.995-33.522 13.887s-13.885 20.946-13.885 33.519v474.076h948.15zM986.066 637.629h-948.15v189.63c0 12.573 4.995 24.631 13.885 33.522s20.949 13.885 33.522 13.885h853.331c12.578 0 24.633-4.995 33.525-13.885s13.887-20.949 13.887-33.522v-189.63zM654.211 258.372v-94.817h189.633v94.817h-189.633z" />
<glyph unicode="&#xe918;" glyph-name="people" d="M152.711-27.998c0 95.291 37.855 186.681 105.236 254.060 67.381 67.385 158.77 105.235 254.062 105.235s186.683-37.85 254.062-105.235c67.379-67.379 105.235-158.769 105.235-254.060h-718.595zM512.009 376.212c-148.884 0-269.474 120.588-269.474 269.472s120.589 269.474 269.474 269.474c148.884 0 269.476-120.589 269.476-269.474s-120.592-269.472-269.476-269.472z" />
<glyph unicode="&#xe919;" glyph-name="projects" d="M896 575.933v-511.703c0.041-5.601-1.024-11.156-3.133-16.348s-5.217-9.917-9.149-13.906c-3.937-3.994-8.617-7.168-13.778-9.349s-10.706-3.323-16.307-3.359h-683.264c-11.229 0-21.999 4.454-29.944 12.39s-12.413 18.703-12.424 29.932v768.684c0 22.912 19.072 42.326 42.582 42.326h426.754v-256c0-11.316 4.495-22.168 12.493-30.17 8.003-8.002 18.857-12.497 30.172-12.497h256zM896 661.266h-213.335v213.206l213.335-213.206z" />
<glyph unicode="&#xe91a;" glyph-name="search" d="M786.391 233.943l182.738-182.702-60.37-60.37-182.702 182.738c-67.978-54.492-152.53-84.132-239.657-84.009-211.968 0-384 172.032-384 384s172.032 384 384 384c211.968 0 384-172.032 384-384 0.123-87.127-29.517-171.679-84.009-239.657zM700.8 265.6c54.149 55.685 84.388 130.33 84.265 208 0 165.034-133.673 298.666-298.665 298.666-165.034 0-298.666-133.632-298.666-298.666 0-164.992 133.632-298.665 298.666-298.665 77.67-0.123 152.315 30.116 208 84.265l6.4 6.4z" />
<glyph unicode="&#xe91b;" glyph-name="settings" d="M142.428 234.675c-18.037 31.191-32.057 64.532-41.728 99.241 21.048 10.706 38.724 27.023 51.073 47.15s18.89 43.279 18.899 66.893c0.009 23.615-6.515 46.771-18.849 66.907s-29.998 36.469-51.038 47.19c19.287 69.739 56.010 133.421 106.71 185.045 19.801-12.873 42.779-20.017 66.388-20.641s46.932 5.297 67.386 17.107c20.453 11.81 37.24 29.049 48.503 49.808s16.562 44.231 15.312 67.816c70.063 18.107 143.585 18.077 213.632-0.086-1.239-23.585 4.070-47.052 15.34-67.806 11.274-20.754 28.068-37.985 48.527-49.786 20.454-11.801 43.781-17.712 67.389-17.079s46.582 7.785 66.376 20.665c24.704-25.173 46.633-53.802 65.065-85.76 18.478-31.957 32.302-65.28 41.728-99.242-21.048-10.705-38.723-27.024-51.072-47.151s-18.888-43.278-18.898-66.892c-0.010-23.612 6.513-46.77 18.847-66.907s29.998-36.47 51.041-47.191c-19.287-69.734-56.013-133.417-106.711-185.042-19.799 12.872-42.778 20.014-66.391 20.639-23.608 0.625-46.93-5.294-67.384-17.106s-37.238-29.051-48.502-49.807c-11.264-20.762-16.563-44.232-15.314-67.82-70.062-18.104-143.582-18.074-213.63 0.087 1.24 23.588-4.070 47.053-15.342 67.809-11.272 20.751-28.065 37.98-48.523 49.782s-43.781 17.715-67.389 17.080c-23.609-0.635-46.582-7.782-66.378-20.664-25.217 25.728-47.078 54.543-65.066 85.76v0zM383.921 226.309c45.467-26.22 79.652-68.306 96-118.185 21.291-2.007 42.667-2.048 63.956-0.041 16.358 49.884 50.56 91.971 96.046 118.185 45.445 26.296 99.005 34.883 150.4 24.105 12.37 17.408 23.040 35.968 31.913 55.383-35.011 39.107-54.354 89.764-54.313 142.252 0 53.76 20.050 103.978 54.313 142.25-8.94 19.407-19.651 37.946-32 55.382-51.359-10.765-104.883-2.196-150.313 24.064-45.471 26.224-79.652 68.31-96 118.186-21.294 2.006-42.669 2.048-63.959 0.042-16.359-49.883-50.56-91.97-96.043-118.186-45.449-26.296-99.009-34.881-150.4-24.106-12.349-17.42-23.034-35.962-31.914-55.382 35.011-39.107 54.352-89.762 54.314-142.25 0-53.763-20.053-103.98-54.314-142.252 8.937-19.405 19.65-37.944 32-55.383 51.359 10.767 104.884 2.196 150.314-24.064zM511.921 320.005c-33.948 0-66.505 13.486-90.509 37.494-24.005 24.003-37.491 56.561-37.491 90.509s13.486 66.505 37.491 90.51c24.005 24.005 56.562 37.49 90.509 37.49s66.506-13.486 90.508-37.49c24.008-24.005 37.494-56.562 37.494-90.51s-13.486-66.506-37.494-90.509c-24.003-24.008-56.561-37.494-90.508-37.494zM511.921 405.34c11.317 0 22.167 4.495 30.169 12.498s12.498 18.852 12.498 30.17c0 11.316-4.495 22.168-12.498 30.17s-18.852 12.497-30.169 12.497c-11.316 0-22.168-4.495-30.17-12.497s-12.497-18.854-12.497-30.17c0-11.318 4.495-22.167 12.497-30.17s18.854-12.498 30.17-12.498v0z" />
<glyph unicode="&#xe91c;" glyph-name="attach" d="M656.553 593.525l-213.811-213.308c-3.611-3.476-6.491-7.639-8.472-12.237-1.981-4.603-3.024-9.549-3.068-14.556s0.913-9.969 2.814-14.607c1.901-4.634 4.707-8.842 8.257-12.38 3.549-3.543 7.77-6.344 12.415-8.238s9.624-2.852 14.643-2.806c5.019 0.041 9.98 1.085 14.592 3.062 4.612 1.971 8.783 4.849 12.27 8.448l213.848 213.268c21.268 21.216 33.219 49.991 33.219 79.994s-11.95 58.779-33.219 79.995c-21.268 21.216-50.115 33.135-80.195 33.135s-58.931-11.919-80.2-33.135l-213.849-213.307c-17.915-17.425-32.184-38.225-41.977-61.191-9.794-22.973-14.917-47.652-15.074-72.612-0.157-24.955 4.657-49.7 14.161-72.786 9.504-23.091 23.51-44.068 41.205-61.716s38.727-31.616 61.876-41.093c23.15-9.477 47.954-14.275 72.977-14.111 25.022 0.159 49.766 5.274 72.791 15.043 23.025 9.774 43.873 24.008 61.343 41.882l213.847 213.268 53.453-53.32-213.847-213.304c-24.576-24.509-53.745-43.955-85.852-57.221s-66.519-20.091-101.271-20.091c-34.752 0-69.164 6.825-101.27 20.091s-61.279 32.712-85.852 57.221c-24.573 24.509-44.066 53.612-57.365 85.637-13.299 32.020-20.144 66.345-20.144 101.012 0 34.662 6.845 68.987 20.144 101.011s32.792 61.124 57.365 85.635l213.885 213.269c35.646 34.343 83.395 53.346 132.952 52.916s96.963-20.257 132.009-55.213c35.046-34.955 54.922-82.242 55.352-131.675s-18.621-97.057-53.048-132.615l-213.811-213.38c-10.537-10.506-23.040-18.842-36.803-24.525s-28.513-8.607-43.409-8.607c-14.896 0-29.646 2.929-43.407 8.617s-26.265 14.024-36.796 24.53c-10.532 10.511-18.886 22.984-24.585 36.71s-8.631 28.442-8.629 43.3c0.002 14.858 2.937 29.568 8.639 43.295s14.059 26.199 24.593 36.705l213.849 213.306 53.453-53.318z" />
<glyph unicode="&#xe91d;" glyph-name="bold" d="M307.2 159.416v595.784h238.546c43.832 0 80.389-6.497 109.67-19.491 29.286-12.994 51.297-31.030 66.038-54.109 14.74-22.885 22.108-49.261 22.108-79.127 0-23.273-4.654-43.734-13.962-61.382-9.308-17.455-22.108-31.806-38.4-43.055-16.097-11.055-34.519-18.909-55.27-23.563v-5.818c22.687-0.97 43.924-7.37 63.708-19.2 19.973-11.833 36.168-28.411 48.579-49.746 12.416-21.14 18.621-46.351 18.621-75.638 0-31.611-7.854-59.827-23.567-84.654-15.514-24.627-38.492-44.119-68.941-58.47s-67.978-21.53-112.584-21.53h-254.546zM433.164 262.4h102.69c35.103 0 60.703 6.692 76.8 20.070 16.097 13.578 24.146 31.616 24.146 54.113 0 16.481-3.978 31.027-11.93 43.633s-19.292 22.497-34.033 29.676c-14.546 7.173-31.903 10.762-52.076 10.762h-105.598v-158.254zM433.164 505.891h93.382c17.26 0 32.584 3.006 45.962 9.018 13.578 6.206 24.243 14.933 32 26.182 7.951 11.249 11.93 24.728 11.93 40.436 0 21.528-7.66 38.885-22.984 52.073-15.124 13.188-36.654 19.782-64.584 19.782h-95.707v-147.491z" />
<glyph unicode="&#xe91e;" glyph-name="italic" d="M409.6 134.692l74.473 446.835h86.981l-74.472-446.835h-86.982zM545.746 651.345c-15.13 0-27.93 5.043-38.401 15.128-10.279 10.278-15.030 22.497-14.255 36.654 0.776 14.352 6.788 26.57 18.036 36.655 11.251 10.279 24.338 15.418 39.273 15.418 15.13 0 27.832-5.139 38.108-15.418 10.281-10.085 15.13-22.303 14.546-36.655-0.773-14.157-6.789-26.376-18.038-36.654-11.054-10.085-24.146-15.128-39.27-15.128z" />
<glyph unicode="&#xe91f;" glyph-name="checkbox" d="M614.4 140.8h-256c-84.831 0-153.6 68.769-153.6 153.6v0 256c0 84.831 68.769 153.6 153.6 153.6v0h256c84.831 0 153.6-68.769 153.6-153.6v0-256c0-84.831-68.769-153.6-153.6-153.6v0zM358.4 640c-49.368-0.289-89.311-40.232-89.6-89.572v-256.028c0.289-49.368 40.232-89.311 89.572-89.6h256.028c49.368 0.289 89.311 40.232 89.6 89.572v256.028c-0.289 49.368-40.232 89.311-89.572 89.6h-0.028z" />
<glyph unicode="&#xe920;" glyph-name="strikethrough" d="M819.2 458.24h-203.264c-18.944 7.168-36.352 12.8-51.2 16.896l-60.928 18.432c-14.872 3.76-26.995 7.617-38.819 12.081l2.467-0.817c-14.494 5.165-27.002 11.386-38.618 18.872l0.73-0.44c-11.848 7.055-21.741 16.131-29.5 26.852l-0.196 0.284c-7.090 10.878-11.307 24.192-11.307 38.491 0 0.868 0.016 1.733 0.046 2.594l-0.004-0.125c-0.005 0.354-0.008 0.772-0.008 1.191 0 18.817 6.152 36.196 16.554 50.238l-0.162-0.228c11.82 15.527 27.378 27.629 45.356 35.063l0.724 0.265c19.074 8.134 41.263 12.862 64.557 12.862 1.604 0 3.204-0.022 4.797-0.067l-0.235 0.005c1.614 0.058 3.511 0.091 5.415 0.091 31.776 0 61.406-9.19 86.377-25.056l-0.656 0.39c23.573-14.781 39.706-39.557 42.467-68.24l0.029-0.368h70.144c-0.961 30.577-11.386 58.544-28.426 81.266l0.266-0.37c-18.398 24.337-42.353 43.529-70.035 55.869l-1.133 0.451c-28.622 12.974-62.062 20.535-97.269 20.535-1.804 0-3.604-0.020-5.399-0.059l0.268 0.005c-0.728 0.008-1.588 0.012-2.449 0.012-36.168 0-70.53-7.732-101.523-21.634l1.572 0.63c-30.106-13.088-55.124-33.012-73.906-57.906l-0.334-0.462c-16.676-23.183-26.669-52.146-26.669-83.442 0-1.265 0.016-2.526 0.049-3.784l-0.004 0.186c-0.087-1.746-0.136-3.791-0.136-5.848 0-36.020 15.182-68.494 39.496-91.372l0.064-0.060c14.797-12.876 31.643-23.99 49.858-32.702l1.342-0.578h-204.8v-51.2h355.328c16.487-4.517 30.274-9.407 43.605-15.154l-2.133 0.818c17.31-7.052 32-17.307 43.965-30.136l0.067-0.072c10.225-12.236 16.433-28.136 16.433-45.486 0-0.929-0.018-1.854-0.053-2.775l0.004 0.133c0.015-0.607 0.023-1.322 0.023-2.040 0-20.935-7.139-40.203-19.116-55.502l0.149 0.197c-13.522-16.421-30.709-29.334-50.343-37.569l-0.857-0.319c-21.279-8.436-45.932-13.328-71.728-13.328-0.883 0-1.765 0.006-2.645 0.017l0.134-0.001c-0.317-0.002-0.691-0.003-1.066-0.003-23.439 0-45.959 3.938-66.933 11.187l1.439-0.433c-20.18 6.756-37.371 17.839-51.159 32.213l-0.041 0.043c-13.081 14.976-21.55 34.281-23.024 55.512l-0.016 0.296h-74.24c1.776-32.228 12.635-61.609 30.034-86.002l-0.338 0.498c18.919-25.217 43.787-44.988 72.569-57.411l1.159-0.445c30.627-13.008 66.248-20.569 103.635-20.569 2.446 0 4.885 0.032 7.316 0.097l-0.359-0.008c2.207-0.065 4.802-0.102 7.407-0.102 39.578 0 77.165 8.521 111.028 23.829l-1.699-0.687c30.263 13.754 55.088 34.962 72.825 61.334l0.391 0.618c15.741 23.719 25.115 52.85 25.115 84.17 0 1.009-0.010 2.016-0.029 3.021l0.002-0.151c0.162 2.488 0.254 5.394 0.254 8.322 0 22.764-5.585 44.224-15.46 63.084l0.357-0.75c-5.457 8.88-11.199 16.577-17.553 23.718l0.145-0.166h119.808z" />
<glyph unicode="&#xe921;" glyph-name="quotes" d="M762.88 140.8h-256v185.856c0.437 51.651 8.453 101.267 22.988 148.012l-0.972-3.628c16.6 55.764 38.557 104.329 66.051 149.129l-1.539-2.697c28.443 48.11 62.444 89.284 101.893 124.483l0.507 0.445 33.792 29.696 153.6-136.704-24.064-36.864c-24.66-37.769-48.759-81.611-69.588-127.26l-2.604-6.372c-17.159-39.202-27.144-84.887-27.144-132.904 0-0.796 0.003-1.591 0.008-2.386l-0.001 0.122zM558.080 192h153.6v137.728c0 0.057 0 0.124 0 0.191 0 55.465 11.681 108.201 32.718 155.883l-0.974-2.474c24.453 55.605 49.776 102.496 78.332 147.118l-2.556-4.27-88.064 77.824c-37.046-32.159-68.496-69.477-93.56-111.077l-1.16-2.075c-23.715-38.425-43.757-82.748-57.851-129.645l-1.029-3.987c-12.173-38.967-19.433-83.816-19.965-130.281l-0.003-0.279zM409.6 140.8h-256v185.856c0.437 51.651 8.453 101.267 22.988 148.012l-0.972-3.628c16.876 55.813 38.813 104.353 66.115 149.272l-1.603-2.84c28.594 48.032 62.576 89.186 101.911 124.497l0.489 0.431 34.304 29.696 153.6-136.704-18.432-36.864c-24.498-37.744-48.435-81.595-69.094-127.246l-2.586-6.386c-18.834-39.61-30.093-85.998-30.718-134.95l-0.002-0.218zM204.8 192h153.6v137.728c0 0.057 0 0.124 0 0.191 0 55.465 11.681 108.201 32.718 155.883l-0.974-2.474c24.427 55.467 49.918 102.358 78.741 146.893l-2.453-4.045-88.064 77.824c-36.697-32.292-67.959-69.583-93.023-111.040l-1.185-2.112c-23.622-38.403-43.808-82.689-58.286-129.482l-1.106-4.15c-12.173-38.967-19.433-83.816-19.965-130.281l-0.003-0.279z" />
<glyph unicode="&#xe922;" glyph-name="color" d="M524.8 670.737l-147.84-147.84c-29.236-29.239-49.146-66.491-57.211-107.045-8.065-40.556-3.924-82.591 11.9-120.791s42.621-70.851 77.002-93.824c34.38-22.968 74.8-35.231 116.149-35.231s81.766 12.262 116.147 35.231c34.381 22.973 61.179 55.624 77.005 93.824 15.821 38.2 19.963 80.236 11.899 120.791s-27.976 77.806-57.211 107.045l-147.84 147.84zM524.8 755.2l190.070-190.071c37.596-37.593 63.196-85.488 73.564-137.629 10.373-52.142 5.048-106.189-15.293-155.305-20.347-49.116-54.799-91.1-99.005-120.632-44.201-29.537-96.169-45.302-149.335-45.302-53.164 0-105.133 15.764-149.337 45.302-44.204 29.532-78.657 71.516-99.002 120.632s-25.668 103.163-15.297 155.305c10.372 52.141 35.972 100.037 73.564 137.629l190.071 190.071z" />
<glyph unicode="&#xe923;" glyph-name="markered-list" d="M405.334 689.051h388.266v-59.796h-388.266v59.796zM300.8 614.305c-11.881 0-23.277 4.725-31.678 13.135s-13.122 19.817-13.122 31.712c0 11.894 4.72 23.302 13.122 31.712s19.797 13.135 31.678 13.135c11.881 0 23.277-4.725 31.678-13.135s13.122-19.818 13.122-31.712c0-11.894-4.72-23.301-13.122-31.712s-19.797-13.135-31.678-13.135zM300.8 405.018c-11.881 0-23.277 4.726-31.678 13.133-8.401 8.412-13.122 19.82-13.122 31.714s4.72 23.302 13.122 31.712c8.402 8.411 19.797 13.135 31.678 13.135s23.277-4.725 31.678-13.135c8.401-8.411 13.122-19.818 13.122-31.712s-4.72-23.302-13.122-31.714c-8.402-8.407-19.797-13.133-31.678-13.133zM300.8 198.717c-11.881 0-23.277 4.726-31.678 13.138-8.401 8.407-13.122 19.814-13.122 31.708 0 11.899 4.72 23.306 13.122 31.713 8.402 8.412 19.797 13.138 31.678 13.138s23.277-4.726 31.678-13.138c8.401-8.407 13.122-19.814 13.122-31.713 0-11.894-4.72-23.301-13.122-31.708-8.402-8.412-19.797-13.138-31.678-13.138zM405.334 479.762h388.266v-59.794h-388.266v59.794zM405.334 270.474h388.266v-59.796h-388.266v59.796z" />
<glyph unicode="&#xe924;" glyph-name="ordered-list" d="M405.334 674.134h388.266v-59.734h-388.266v59.734zM315.734 704v-89.6h29.866v-29.866h-89.6v29.866h29.866v59.734h-29.866v29.866h59.734zM256 375.465v74.669h59.734v14.933h-59.734v29.867h89.6v-74.669h-59.734v-14.93h59.734v-29.87h-89.6zM315.734 211.2h-59.734v29.865h59.734v14.935h-59.734v29.865h89.6v-119.465h-89.6v29.865h59.734v14.935zM405.334 465.066h388.266v-59.731h-388.266v59.731zM405.334 256h388.266v-59.735h-388.266v59.735z" />
<glyph unicode="&#xe925;" glyph-name="link" d="M688.44 355.63l-42.23 42.332 42.23 42.276c13.967 13.862 25.062 30.346 32.645 48.509 7.588 18.163 11.515 37.647 11.556 57.334 0.046 19.686-3.799 39.187-11.3 57.384-7.506 18.196-18.529 34.729-32.435 48.65s-30.423 24.954-48.599 32.468c-18.176 7.514-37.658 11.36-57.324 11.317s-39.127-3.974-57.272-11.568c-18.145-7.593-34.612-18.7-48.457-32.681l-42.231-42.306-42.262 42.276 42.291 42.276c39.21 39.251 92.389 61.302 147.839 61.302s108.631-22.051 147.84-61.302c39.209-39.251 61.24-92.487 61.24-147.997s-22.031-108.745-61.24-147.995l-42.291-42.276zM603.981 271.073l-42.266-42.276c-39.209-39.25-92.387-61.302-147.838-61.302s-108.631 22.052-147.84 61.302c-39.209 39.255-61.237 92.488-61.237 147.999s22.028 108.746 61.237 147.997l42.262 42.276 42.231-42.336-42.231-42.276c-13.967-13.859-25.061-30.344-32.647-48.506-7.585-18.166-11.512-37.647-11.555-57.334s3.799-39.188 11.304-57.385c7.506-18.196 18.528-34.729 32.434-48.65s30.421-24.955 48.598-32.466c18.177-7.516 37.658-11.361 57.324-11.32 19.665 0.046 39.129 3.978 57.273 11.571s34.611 18.698 48.455 32.681l42.23 42.276 42.266-42.25zM582.835 588.207l42.26-42.306-211.189-211.381-42.261 42.276 211.189 211.411z" />
<glyph unicode="&#xe926;" glyph-name="check-mark" d="M426.731 312.661l392.189 392.234 60.375-60.331-452.564-452.565-271.531 271.531 60.331 60.331 211.2-211.2z" />
<glyph unicode="&#xe927;" glyph-name="google" d="M130.731 639.573c35.499 70.688 89.957 130.112 157.288 171.628s144.882 63.49 223.982 63.465c114.987 0 211.584-42.24 285.44-111.147l-122.325-122.368c-44.245 42.283-100.48 63.829-163.115 63.829-111.147 0-205.227-75.093-238.72-175.915-8.533-25.6-13.397-52.907-13.397-81.067s4.864-55.467 13.397-81.067c33.536-100.864 127.573-175.915 238.72-175.915 57.387 0 106.24 15.147 144.469 40.747 22.161 14.592 41.135 33.527 55.774 55.659s24.636 47.002 29.389 73.109h-229.632v165.035h401.835c5.035-27.904 7.765-57.003 7.765-87.253 0-129.963-46.507-239.36-127.232-313.6-70.571-65.195-167.168-103.381-282.368-103.381-56.038-0.021-111.529 10.999-163.305 32.431-51.776 21.436-98.82 52.864-138.444 92.489-39.624 39.62-71.051 86.665-92.486 138.441s-32.454 107.268-32.432 163.307c0 68.864 16.469 133.973 45.397 191.573z" />
</font>
</defs>
</svg>
