<svg width="20" height="20" viewBox="0 0 20 20" fill="none" xmlns="http://www.w3.org/2000/svg">
<path d="M12.8233 7.15772L8.6473 11.3239C8.57678 11.3918 8.52053 11.4731 8.48184 11.5629C8.44314 11.6528 8.42278 11.7494 8.42192 11.8472C8.42107 11.945 8.43975 12.0419 8.47688 12.1325C8.514 12.223 8.56882 12.3052 8.63815 12.3743C8.70747 12.4435 8.78991 12.4982 8.88064 12.5352C8.97138 12.5722 9.0686 12.5909 9.16664 12.59C9.26467 12.5892 9.36156 12.5688 9.45164 12.5302C9.54171 12.4917 9.62319 12.4355 9.69129 12.3652L13.868 8.1998C14.2834 7.78543 14.5168 7.22342 14.5168 6.63741C14.5168 6.0514 14.2834 5.48939 13.868 5.07501C13.4526 4.66064 12.8892 4.42785 12.3017 4.42785C11.7142 4.42785 11.1507 4.66064 10.7353 5.07501L6.55857 9.24116C6.20866 9.58149 5.92998 9.98775 5.7387 10.4363C5.54742 10.885 5.44735 11.367 5.44428 11.8545C5.44122 12.3419 5.53523 12.8252 5.72086 13.2761C5.90649 13.7271 6.18004 14.1368 6.52565 14.4815C6.87126 14.8262 7.28204 15.099 7.73417 15.2841C8.18631 15.4692 8.67078 15.5629 9.1595 15.5597C9.64822 15.5566 10.1315 15.4567 10.5812 15.2659C11.0309 15.075 11.4381 14.797 11.7793 14.4479L15.956 10.2825L17 11.3239L12.8233 15.49C12.3433 15.9687 11.7736 16.3485 11.1465 16.6076C10.5194 16.8667 9.8473 17 9.16856 17C8.48981 17 7.81771 16.8667 7.19064 16.6076C6.56356 16.3485 5.99378 15.9687 5.51384 15.49C5.03389 15.0113 4.65318 14.4429 4.39343 13.8174C4.13369 13.192 4 12.5216 4 11.8445C4 11.1675 4.13369 10.4971 4.39343 9.87162C4.65318 9.24613 5.03389 8.6778 5.51384 8.19907L9.69129 4.03366C10.3875 3.3629 11.3201 2.99175 12.288 3.00014C13.2559 3.00853 14.1818 3.39579 14.8663 4.07852C15.5508 4.76124 15.939 5.68481 15.9474 6.65029C15.9558 7.61578 15.5837 8.54593 14.9113 9.24042L10.7353 13.408C10.5295 13.6132 10.2853 13.776 10.0165 13.887C9.74769 13.998 9.4596 14.0551 9.16867 14.0551C8.87773 14.0551 8.58965 13.9979 8.32088 13.8868C8.0521 13.7757 7.80789 13.6129 7.6022 13.4077C7.3965 13.2024 7.23334 12.9588 7.12203 12.6907C7.01073 12.4226 6.95346 12.1352 6.9535 11.845C6.95353 11.5548 7.01087 11.2675 7.12223 10.9994C7.2336 10.7313 7.39682 10.4877 7.60256 10.2825L11.7793 6.11636L12.8233 7.15772Z" fill="#77809C"/>
</svg>
