<svg width="20" height="20" viewBox="0 0 20 20" fill="none" xmlns="http://www.w3.org/2000/svg">
<path d="M6 15.6364V4H10.6591C11.5152 4 12.2292 4.12689 12.8011 4.38068C13.3731 4.63447 13.803 4.98674 14.0909 5.4375C14.3788 5.88447 14.5227 6.39962 14.5227 6.98295C14.5227 7.4375 14.4318 7.83712 14.25 8.18182C14.0682 8.52273 13.8182 8.80303 13.5 9.02273C13.1856 9.23864 12.8258 9.39205 12.4205 9.48295V9.59659C12.8636 9.61553 13.2784 9.74053 13.6648 9.97159C14.0549 10.2027 14.3712 10.5265 14.6136 10.9432C14.8561 11.3561 14.9773 11.8485 14.9773 12.4205C14.9773 13.0379 14.8239 13.589 14.517 14.0739C14.214 14.5549 13.7652 14.9356 13.1705 15.2159C12.5758 15.4962 11.8428 15.6364 10.9716 15.6364H6ZM8.46023 13.625H10.4659C11.1515 13.625 11.6515 13.4943 11.9659 13.233C12.2803 12.9678 12.4375 12.6155 12.4375 12.1761C12.4375 11.8542 12.3598 11.5701 12.2045 11.3239C12.0492 11.0777 11.8277 10.8845 11.5398 10.7443C11.2557 10.6042 10.9167 10.5341 10.5227 10.5341H8.46023V13.625ZM8.46023 8.86932H10.2841C10.6212 8.86932 10.9205 8.81061 11.1818 8.69318C11.447 8.57197 11.6553 8.40152 11.8068 8.18182C11.9621 7.96212 12.0398 7.69886 12.0398 7.39205C12.0398 6.97159 11.8902 6.63258 11.5909 6.375C11.2955 6.11742 10.875 5.98864 10.3295 5.98864H8.46023V8.86932Z" fill="#77809C"/>
</svg>
