<svg width="20" height="20" viewBox="0 0 20 20" fill="none" xmlns="http://www.w3.org/2000/svg">
<path d="M14.168 2.49998H17.5013C17.7223 2.49998 17.9343 2.58778 18.0906 2.74406C18.2468 2.90034 18.3346 3.1123 18.3346 3.33331V16.6666C18.3346 16.8877 18.2468 17.0996 18.0906 17.2559C17.9343 17.4122 17.7223 17.5 17.5013 17.5H2.5013C2.28029 17.5 2.06833 17.4122 1.91205 17.2559C1.75577 17.0996 1.66797 16.8877 1.66797 16.6666V3.33331C1.66797 3.1123 1.75577 2.90034 1.91205 2.74406C2.06833 2.58778 2.28029 2.49998 2.5013 2.49998H5.83464V0.833313H7.5013V2.49998H12.5013V0.833313H14.168V2.49998ZM16.668 9.16665H3.33464V15.8333H16.668V9.16665ZM12.5013 4.16665H7.5013V5.83331H5.83464V4.16665H3.33464V7.49998H16.668V4.16665H14.168V5.83331H12.5013V4.16665ZM5.0013 10.8333H6.66797V12.5H5.0013V10.8333ZM9.16797 10.8333H10.8346V12.5H9.16797V10.8333ZM13.3346 10.8333H15.0013V12.5H13.3346V10.8333Z" fill="#77809C"/>
</svg>
