<svg width="20" height="20" viewBox="0 0 20 20" fill="none" xmlns="http://www.w3.org/2000/svg">
<path d="M8.52333 3.66667L6.85667 5.33333H3.66667V15.3333H17V5.33333H13.81L12.1433 3.66667H8.52333ZM7.83333 2H12.8333L14.5 3.66667H17.8333C18.0543 3.66667 18.2663 3.75446 18.4226 3.91074C18.5789 4.06702 18.6667 4.27899 18.6667 4.5V16.1667C18.6667 16.3877 18.5789 16.5996 18.4226 16.7559C18.2663 16.9122 18.0543 17 17.8333 17H2.83333C2.61232 17 2.40036 16.9122 2.24408 16.7559C2.0878 16.5996 2 16.3877 2 16.1667V4.5C2 4.27899 2.0878 4.06702 2.24408 3.91074C2.40036 3.75446 2.61232 3.66667 2.83333 3.66667H6.16667L7.83333 2ZM10.3333 14.5C9.11776 14.5 7.95197 14.0171 7.09243 13.1576C6.23289 12.298 5.75 11.1322 5.75 9.91667C5.75 8.70109 6.23289 7.5353 7.09243 6.67576C7.95197 5.81622 9.11776 5.33333 10.3333 5.33333C11.5489 5.33333 12.7147 5.81622 13.5742 6.67576C14.4338 7.5353 14.9167 8.70109 14.9167 9.91667C14.9167 11.1322 14.4338 12.298 13.5742 13.1576C12.7147 14.0171 11.5489 14.5 10.3333 14.5ZM10.3333 12.8333C11.1069 12.8333 11.8487 12.526 12.3957 11.9791C12.9427 11.4321 13.25 10.6902 13.25 9.91667C13.25 9.14312 12.9427 8.40125 12.3957 7.85427C11.8487 7.30729 11.1069 7 10.3333 7C9.55979 7 8.81792 7.30729 8.27094 7.85427C7.72396 8.40125 7.41667 9.14312 7.41667 9.91667C7.41667 10.6902 7.72396 11.4321 8.27094 11.9791C8.81792 12.526 9.55979 12.8333 10.3333 12.8333V12.8333Z" fill="#77809C"/>
</svg>
