<svg width="20" height="20" viewBox="0 0 20 20" fill="none" xmlns="http://www.w3.org/2000/svg">
<path d="M14.9173 12.0688C15.3499 11.041 15.4495 9.9035 15.2021 8.81617C14.9546 7.72885 14.3727 6.74642 13.538 6.00699C12.7033 5.26756 11.6578 4.80833 10.5486 4.69386C9.43934 4.57939 8.32213 4.81544 7.35401 5.36882L6.69268 4.21082C7.70443 3.63256 8.85014 3.32973 10.0155 3.33254C11.1808 3.33535 12.3251 3.6437 13.334 4.22682C16.3273 5.95482 17.474 9.65482 16.0787 12.7402L16.9733 13.2562L14.1967 14.7322L14.0867 11.5895L14.9173 12.0688ZM5.08401 7.93149C4.65144 8.95929 4.55187 10.0968 4.79929 11.1841C5.04671 12.2715 5.62869 13.2539 6.46339 13.9933C7.2981 14.7327 8.34356 15.192 9.45279 15.3064C10.562 15.4209 11.6792 15.1849 12.6473 14.6315L13.3087 15.7895C12.2969 16.3677 11.1512 16.6706 9.98588 16.6678C8.82053 16.665 7.6763 16.3566 6.66734 15.7735C3.67401 14.0455 2.52734 10.3455 3.92268 7.26015L3.02734 6.74482L5.80401 5.26882L5.91401 8.41149L5.08334 7.93215L5.08401 7.93149Z" fill="#77809C"/>
</svg>
