<svg width="20" height="20" viewBox="0 0 20 20" fill="none" xmlns="http://www.w3.org/2000/svg">
<path d="M10.25 5.64967L7.3625 8.53717C6.79148 9.10825 6.40262 9.83583 6.2451 10.6279C6.08758 11.42 6.16846 12.241 6.47753 12.9871C6.7866 13.7332 7.30998 14.3709 7.98147 14.8196C8.65296 15.2682 9.44241 15.5077 10.25 15.5077C11.0576 15.5077 11.847 15.2682 12.5185 14.8196C13.19 14.3709 13.7134 13.7332 14.0225 12.9871C14.3315 12.241 14.4124 11.42 14.2549 10.6279C14.0974 9.83583 13.7085 9.10825 13.1375 8.53717L10.25 5.64967ZM10.25 4L13.9623 7.71233C14.6966 8.44656 15.1966 9.38202 15.3991 10.4004C15.6017 11.4188 15.4977 12.4744 15.1004 13.4337C14.703 14.393 14.0301 15.213 13.1667 15.7898C12.3034 16.3667 11.2884 16.6746 10.25 16.6746C9.21165 16.6746 8.19662 16.3667 7.33327 15.7898C6.46991 15.213 5.797 14.393 5.39964 13.4337C5.00228 12.4744 4.89831 11.4188 5.10087 10.4004C5.30344 9.38202 5.80345 8.44656 6.53767 7.71233L10.25 4V4Z" fill="#77809C"/>
</svg>
