<svg width="20" height="20" viewBox="0 0 20 20" fill="none" xmlns="http://www.w3.org/2000/svg">
<path d="M2 6.99501C1.99956 6.33851 2.12863 5.68837 2.37981 5.08183C2.63099 4.47528 2.99935 3.92424 3.46379 3.46026C3.92824 2.99628 4.47965 2.62847 5.08644 2.3779C5.69324 2.12733 6.34351 1.99891 7 2.00001H13.6667C16.4275 2.00001 18.6667 4.24584 18.6667 6.99501V17H7C4.23917 17 2 14.7542 2 12.005V6.99501ZM17 15.3333V6.99501C16.9978 6.11209 16.6457 5.26604 16.021 4.64219C15.3962 4.01834 14.5496 3.66755 13.6667 3.66667H7C6.56238 3.66558 6.12884 3.75088 5.72425 3.91769C5.31966 4.08451 4.95198 4.32955 4.6423 4.63877C4.33262 4.94799 4.08703 5.3153 3.9196 5.71963C3.75218 6.12397 3.66623 6.55738 3.66667 6.99501V12.005C3.66887 12.8879 4.02093 13.734 4.64572 14.3578C5.2705 14.9817 6.11708 15.3325 7 15.3333H17ZM12 8.66667H13.6667V10.3333H12V8.66667ZM7 8.66667H8.66667V10.3333H7V8.66667Z" fill="#77809C"/>
</svg>
