<svg width="20" height="20" viewBox="0 0 20 20" fill="none" xmlns="http://www.w3.org/2000/svg">
<path d="M5.88889 6V3.75C5.88889 3.55109 5.96498 3.36032 6.10042 3.21967C6.23587 3.07902 6.41957 3 6.61111 3H15.2778C15.4693 3 15.653 3.07902 15.7885 3.21967C15.9239 3.36032 16 3.55109 16 3.75V14.25C16 14.4489 15.9239 14.6397 15.7885 14.7803C15.653 14.921 15.4693 15 15.2778 15H13.1111V17.25C13.1111 17.664 12.7861 18 12.3838 18H3.72728C3.63204 18.0006 3.53762 17.9816 3.44946 17.9442C3.36129 17.9068 3.28111 17.8517 3.21353 17.782C3.14595 17.7123 3.09229 17.6294 3.05565 17.5381C3.01901 17.4468 3.00009 17.3489 3 17.25L3.00217 6.75C3.00217 6.336 3.32717 6 3.72944 6H5.88889ZM4.44661 7.5L4.44444 16.5H11.6667V7.5H4.44661ZM7.33333 6H13.1111V13.5H14.5556V4.5H7.33333V6Z" fill="#77809C"/>
</svg>
