<svg width="20" height="20" viewBox="0 0 20 20" fill="none" xmlns="http://www.w3.org/2000/svg">
<path d="M9.5 18C5.35775 18 2 14.6422 2 10.5C2 6.35775 5.35775 3 9.5 3C13.6422 3 17 6.35775 17 10.5C17 14.6422 13.6422 18 9.5 18ZM9.5 16.5C11.0913 16.5 12.6174 15.8679 13.7426 14.7426C14.8679 13.6174 15.5 12.0913 15.5 10.5C15.5 8.9087 14.8679 7.38258 13.7426 6.25736C12.6174 5.13214 11.0913 4.5 9.5 4.5C7.9087 4.5 6.38258 5.13214 5.25736 6.25736C4.13214 7.38258 3.5 8.9087 3.5 10.5C3.5 12.0913 4.13214 13.6174 5.25736 14.7426C6.38258 15.8679 7.9087 16.5 9.5 16.5V16.5ZM5.75 11.25H7.25C7.25 11.8467 7.48705 12.419 7.90901 12.841C8.33097 13.2629 8.90326 13.5 9.5 13.5C10.0967 13.5 10.669 13.2629 11.091 12.841C11.5129 12.419 11.75 11.8467 11.75 11.25H13.25C13.25 12.2446 12.8549 13.1984 12.1517 13.9017C11.4484 14.6049 10.4946 15 9.5 15C8.50544 15 7.55161 14.6049 6.84835 13.9017C6.14509 13.1984 5.75 12.2446 5.75 11.25V11.25ZM6.5 9.75C6.20163 9.75 5.91548 9.63147 5.7045 9.4205C5.49353 9.20952 5.375 8.92337 5.375 8.625C5.375 8.32663 5.49353 8.04048 5.7045 7.8295C5.91548 7.61853 6.20163 7.5 6.5 7.5C6.79837 7.5 7.08452 7.61853 7.2955 7.8295C7.50647 8.04048 7.625 8.32663 7.625 8.625C7.625 8.92337 7.50647 9.20952 7.2955 9.4205C7.08452 9.63147 6.79837 9.75 6.5 9.75ZM12.5 9.75C12.2016 9.75 11.9155 9.63147 11.7045 9.4205C11.4935 9.20952 11.375 8.92337 11.375 8.625C11.375 8.32663 11.4935 8.04048 11.7045 7.8295C11.9155 7.61853 12.2016 7.5 12.5 7.5C12.7984 7.5 13.0845 7.61853 13.2955 7.8295C13.5065 8.04048 13.625 8.32663 13.625 8.625C13.625 8.92337 13.5065 9.20952 13.2955 9.4205C13.0845 9.63147 12.7984 9.75 12.5 9.75Z" fill="#77809C"/>
</svg>
