<svg width="26" height="26" viewBox="0 0 26 26" fill="none" xmlns="http://www.w3.org/2000/svg">
<path d="M19.6142 10.2327C19.605 10.206 19.5975 10.1802 19.5867 10.1543C19.5472 10.0639 19.4919 9.98122 19.4233 9.91018L14.4233 4.91018C14.3523 4.84167 14.2696 4.78636 14.1792 4.74685C14.1542 4.73518 14.1275 4.72852 14.1008 4.71935C14.0311 4.69562 13.9585 4.68133 13.885 4.67685C13.8667 4.67518 13.8508 4.66602 13.8333 4.66602H8C7.08084 4.66602 6.33334 5.41352 6.33334 6.33268V19.666C6.33334 20.5852 7.08084 21.3327 8 21.3327H18C18.9192 21.3327 19.6667 20.5852 19.6667 19.666V10.4993C19.6667 10.4818 19.6575 10.466 19.6558 10.4477C19.6516 10.3745 19.6376 10.3022 19.6142 10.2327ZM16.8217 9.66602H14.6667V7.51102L16.8217 9.66602ZM8 19.666V6.33268H13V10.4993C13 10.7204 13.0878 10.9323 13.2441 11.0886C13.4004 11.2449 13.6123 11.3327 13.8333 11.3327H18L18.0017 19.666H8Z" fill="#77809C"/>
</svg>
