<svg width="20" height="20" viewBox="0 0 20 20" fill="none" xmlns="http://www.w3.org/2000/svg">
<path d="M5.475 15.3354C5.64717 14.8474 5.96645 14.4249 6.38883 14.126C6.81122 13.8272 7.31591 13.6667 7.83333 13.6667C8.35076 13.6667 8.85545 13.8272 9.27783 14.126C9.70022 14.4249 10.0195 14.8474 10.1917 15.3354H18.6667V17.002H10.1917C10.0195 17.49 9.70022 17.9125 9.27783 18.2114C8.85545 18.5103 8.35076 18.6708 7.83333 18.6708C7.31591 18.6708 6.81122 18.5103 6.38883 18.2114C5.96645 17.9125 5.64717 17.49 5.475 17.002H2V15.3354H5.475ZM10.475 9.50204C10.6472 9.0141 10.9664 8.59157 11.3888 8.2927C11.8112 7.99383 12.3159 7.83333 12.8333 7.83333C13.3508 7.83333 13.8555 7.99383 14.2778 8.2927C14.7002 8.59157 15.0195 9.0141 15.1917 9.50204H18.6667V11.1687H15.1917C15.0195 11.6567 14.7002 12.0792 14.2778 12.3781C13.8555 12.6769 13.3508 12.8374 12.8333 12.8374C12.3159 12.8374 11.8112 12.6769 11.3888 12.3781C10.9664 12.0792 10.6472 11.6567 10.475 11.1687H2V9.50204H10.475ZM5.475 3.66871C5.64717 3.18076 5.96645 2.75824 6.38883 2.45937C6.81122 2.1605 7.31591 2 7.83333 2C8.35076 2 8.85545 2.1605 9.27783 2.45937C9.70022 2.75824 10.0195 3.18076 10.1917 3.66871H18.6667V5.33538H10.1917C10.0195 5.82332 9.70022 6.24585 9.27783 6.54472C8.85545 6.84359 8.35076 7.00408 7.83333 7.00408C7.31591 7.00408 6.81122 6.84359 6.38883 6.54472C5.96645 6.24585 5.64717 5.82332 5.475 5.33538H2V3.66871H5.475Z" fill="#77809C"/>
</svg>
