<svg width="20" height="20" viewBox="0 0 20 20" fill="none" xmlns="http://www.w3.org/2000/svg">
<path d="M8 16.1193L9.45455 7.39205H11.1534L9.69886 16.1193H8ZM10.6591 6.02841C10.3636 6.02841 10.1136 5.92992 9.90909 5.73295C9.70833 5.5322 9.61553 5.29356 9.63068 5.01705C9.64583 4.73674 9.76326 4.49811 9.98295 4.30114C10.2027 4.10038 10.4583 4 10.75 4C11.0455 4 11.2936 4.10038 11.4943 4.30114C11.6951 4.49811 11.7898 4.73674 11.7784 5.01705C11.7633 5.29356 11.6458 5.5322 11.4261 5.73295C11.2102 5.92992 10.9545 6.02841 10.6591 6.02841Z" fill="#77809C"/>
</svg>
