<svg width="20" height="20" viewBox="0 0 20 20" fill="none" xmlns="http://www.w3.org/2000/svg">
<path d="M13.4461 11.8041L12.6213 10.9773L13.4461 10.1516C13.7189 9.88086 13.9356 9.5589 14.0837 9.20415C14.2319 8.8494 14.3086 8.46885 14.3094 8.08434C14.3103 7.69984 14.2352 7.31896 14.0887 6.96356C13.9421 6.60817 13.7268 6.28526 13.4552 6.01337C13.1836 5.74149 12.861 5.52598 12.506 5.37923C12.151 5.23247 11.7705 5.15736 11.3864 5.1582C11.0023 5.15904 10.6222 5.23582 10.2678 5.38413C9.9134 5.53244 9.59178 5.74936 9.32137 6.02243L8.49654 6.84872L7.67112 6.02302L8.49712 5.19731C9.26294 4.43069 10.3016 4 11.3846 4C12.4676 4 13.5063 4.43069 14.2721 5.19731C15.0379 5.96393 15.4682 7.0037 15.4682 8.08787C15.4682 9.17204 15.0379 10.2118 14.2721 10.9784L13.4467 11.8041H13.4461ZM11.7965 13.4556L10.971 14.2813C10.2052 15.0479 9.16656 15.4786 8.08354 15.4786C7.00052 15.4786 5.96185 15.0479 5.19604 14.2813C4.43023 13.5146 4 12.4749 4 11.3907C4 10.3065 4.43023 9.26676 5.19604 8.50014L6.02146 7.67443L6.84629 8.50131L6.02146 9.32701C5.74867 9.5977 5.53199 9.91967 5.38383 10.2744C5.23568 10.6292 5.15898 11.0097 5.15814 11.3942C5.1573 11.7787 5.23233 12.1596 5.37893 12.515C5.52553 12.8704 5.74081 13.1933 6.01241 13.4652C6.284 13.7371 6.60657 13.9526 6.96159 14.0993C7.31661 14.2461 7.69709 14.3212 8.08119 14.3204C8.46528 14.3195 8.84543 14.2427 9.19981 14.0944C9.55418 13.9461 9.8758 13.7292 10.1462 13.4561L10.971 12.6304L11.7965 13.4561V13.4556ZM11.3835 7.26158L12.2089 8.08787L8.08412 12.2164L7.25871 11.3907L11.3835 7.26216V7.26158Z" fill="#77809C"/>
</svg>
