<svg width="20" height="20" viewBox="0 0 20 20" fill="none" xmlns="http://www.w3.org/2000/svg">
<path d="M7.91667 5.29198H15.5V6.45988H7.91667V5.29198ZM5.875 6.75185C5.64294 6.75185 5.42038 6.65957 5.25628 6.4953C5.09219 6.33103 5 6.10824 5 5.87593C5 5.64362 5.09219 5.42082 5.25628 5.25655C5.42038 5.09228 5.64294 5 5.875 5C6.10706 5 6.32962 5.09228 6.49372 5.25655C6.65781 5.42082 6.75 5.64362 6.75 5.87593C6.75 6.10824 6.65781 6.33103 6.49372 6.4953C6.32962 6.65957 6.10706 6.75185 5.875 6.75185ZM5.875 10.8395C5.64294 10.8395 5.42038 10.7472 5.25628 10.583C5.09219 10.4187 5 10.1959 5 9.96359C5 9.73128 5.09219 9.50848 5.25628 9.34421C5.42038 9.17994 5.64294 9.08766 5.875 9.08766C6.10706 9.08766 6.32962 9.17994 6.49372 9.34421C6.65781 9.50848 6.75 9.73128 6.75 9.96359C6.75 10.1959 6.65781 10.4187 6.49372 10.583C6.32962 10.7472 6.10706 10.8395 5.875 10.8395ZM5.875 14.8688C5.64294 14.8688 5.42038 14.7765 5.25628 14.6122C5.09219 14.448 5 14.2252 5 13.9929C5 13.7605 5.09219 13.5377 5.25628 13.3735C5.42038 13.2092 5.64294 13.1169 5.875 13.1169C6.10706 13.1169 6.32962 13.2092 6.49372 13.3735C6.65781 13.5377 6.75 13.7605 6.75 13.9929C6.75 14.2252 6.65781 14.448 6.49372 14.6122C6.32962 14.7765 6.10706 14.8688 5.875 14.8688ZM7.91667 9.37964H15.5V10.5475H7.91667V9.37964ZM7.91667 13.4673H15.5V14.6352H7.91667V13.4673Z" fill="#77809C"/>
</svg>
