<svg width="20" height="20" viewBox="0 0 20 20" fill="none" xmlns="http://www.w3.org/2000/svg">
<path d="M5.33333 13.6667H14.6667V9.02067C14.6667 6.432 12.5773 4.33333 10 4.33333C7.42267 4.33333 5.33333 6.432 5.33333 9.02067V13.6667ZM10 3C13.3133 3 16 5.69533 16 9.02067V15H4V9.02067C4 5.69533 6.68667 3 10 3ZM8.33333 15.6667H11.6667C11.6667 16.1087 11.4911 16.5326 11.1785 16.8452C10.866 17.1577 10.442 17.3333 10 17.3333C9.55797 17.3333 9.13405 17.1577 8.82149 16.8452C8.50893 16.5326 8.33333 16.1087 8.33333 15.6667V15.6667Z" fill="#77809C"/>
</svg>
