<svg width="20" height="20" viewBox="0 0 20 20" fill="none" xmlns="http://www.w3.org/2000/svg">
<path d="M7.91667 5.58333H15.5V6.75H7.91667V5.58333ZM6.16667 5V6.75H6.75V7.33333H5V6.75H5.58333V5.58333H5V5H6.16667ZM5 11.4167V9.95833H6.16667V9.66667H5V9.08333H6.75V10.5417H5.58333V10.8333H6.75V11.4167H5ZM6.16667 14.625H5V14.0417H6.16667V13.75H5V13.1667H6.75V15.5H5V14.9167H6.16667V14.625ZM7.91667 9.66667H15.5V10.8333H7.91667V9.66667ZM7.91667 13.75H15.5V14.9167H7.91667V13.75Z" fill="#77809C"/>
</svg>
