<svg width="20" height="20" viewBox="0 0 20 20" fill="none" xmlns="http://www.w3.org/2000/svg">
<path d="M7.78547 15.6517L6.1763 15.22L6.83214 12.7709C5.85044 12.4088 4.93807 11.8812 4.13464 11.2109L2.34047 13.0059L1.1613 11.8267L2.9563 10.0325C1.94303 8.81899 1.26221 7.36316 0.980469 5.80753L2.62047 5.50836C3.25297 9.01003 6.3163 11.6667 10.0005 11.6667C13.6838 11.6667 16.748 9.01003 17.3805 5.50836L19.0205 5.80669C18.7391 7.36254 18.0586 8.81867 17.0455 10.0325L18.8396 11.8267L17.6605 13.0059L15.8663 11.2109C15.0629 11.8812 14.1505 12.4088 13.1688 12.7709L13.8246 15.2209L12.2155 15.6517L11.5588 13.2017C10.5274 13.3784 9.47351 13.3784 8.44214 13.2017L7.78547 15.6517Z" fill="#77809C"/>
</svg>
