<svg width="20" height="20" viewBox="0 0 20 20" fill="none" xmlns="http://www.w3.org/2000/svg">
<path d="M17.5 7.5013V17.4955C17.5008 17.6049 17.48 17.7134 17.4388 17.8148C17.3976 17.9162 17.3369 18.0085 17.2601 18.0864C17.1832 18.1644 17.0918 18.2264 16.991 18.269C16.8902 18.3116 16.7819 18.3339 16.6725 18.3346H3.3275C3.10818 18.3346 2.89783 18.2476 2.74266 18.0926C2.5875 17.9376 2.50022 17.7273 2.5 17.508V2.49464C2.5 2.04714 2.8725 1.66797 3.33167 1.66797H11.6667V6.66797C11.6667 6.88898 11.7545 7.10094 11.9107 7.25722C12.067 7.4135 12.279 7.5013 12.5 7.5013H17.5ZM17.5 5.83464H13.3333V1.67047L17.5 5.83464Z" fill="#77809C"/>
</svg>
