<svg id="Layer_1" data-name="Layer 1" xmlns="http://www.w3.org/2000/svg" viewBox="0 0 20 20"><defs><style>.cls-1{fill:#77809c;}</style></defs><path class="cls-1" d="M14.9,16h-5V12.37a10,10,0,0,1,.43-2.82,12.1,12.1,0,0,1,1.26-2.86,10.07,10.07,0,0,1,2-2.44l.66-.58,3,2.67-.47.72a19.9,19.9,0,0,0-1.41,2.61,6.62,6.62,0,0,0-.53,2.64Zm-4-1h3V12.31a7.55,7.55,0,0,1,.62-3A20.81,20.81,0,0,1,16,6.52h0L14.28,5a9,9,0,0,0-1.85,2.21,11,11,0,0,0-1.15,2.61,9.2,9.2,0,0,0-.39,2.55ZM8,16H3V12.37a10,10,0,0,1,.43-2.82A12.52,12.52,0,0,1,4.69,6.69a10.27,10.27,0,0,1,2-2.44l.67-.58,3,2.67L10,7.06a19.83,19.83,0,0,0-1.4,2.61A6.46,6.46,0,0,0,8,12.31ZM4,15H7V12.31a7.55,7.55,0,0,1,.62-3A20.2,20.2,0,0,1,9.11,6.52h0L7.39,5A9.22,9.22,0,0,0,5.55,7.21,11.44,11.44,0,0,0,4.39,9.82,9.2,9.2,0,0,0,4,12.37Z"/></svg>