<svg width="20" height="20" viewBox="0 0 20 20" fill="none" xmlns="http://www.w3.org/2000/svg">
<path d="M2.7818 14.1665C2.42952 13.5573 2.15568 12.9061 1.9668 12.2282C2.37789 12.0191 2.72313 11.7004 2.96432 11.3073C3.20552 10.9142 3.33327 10.462 3.33344 10.0008C3.33361 9.53957 3.2062 9.08731 2.9653 8.69402C2.7244 8.30073 2.3794 7.98174 1.96846 7.77235C2.34516 6.41026 3.0624 5.16648 4.05263 4.15819C4.43937 4.40962 4.88815 4.54915 5.34928 4.56134C5.81041 4.57352 6.26592 4.45788 6.66541 4.22721C7.06489 3.99655 7.39276 3.65985 7.61274 3.25439C7.83271 2.84892 7.93622 2.3905 7.9118 1.92985C9.28022 1.5762 10.7162 1.57678 12.0843 1.93152C12.0601 2.39216 12.1638 2.85051 12.3839 3.25586C12.6041 3.66121 12.9321 3.99775 13.3317 4.22824C13.7312 4.45872 14.1868 4.57417 14.6479 4.56181C15.109 4.54945 15.5577 4.40975 15.9443 4.15819C16.4268 4.64985 16.8551 5.20902 17.2151 5.83319C17.576 6.45735 17.846 7.10819 18.0301 7.77152C17.619 7.9806 17.2738 8.29933 17.0326 8.69244C16.7914 9.08555 16.6637 9.53772 16.6635 9.99892C16.6633 10.4601 16.7907 10.9124 17.0316 11.3057C17.2725 11.699 17.6175 12.018 18.0285 12.2274C17.6518 13.5894 16.9345 14.8332 15.9443 15.8415C15.5576 15.5901 15.1088 15.4506 14.6476 15.4384C14.1865 15.4262 13.731 15.5418 13.3315 15.7725C12.932 16.0032 12.6042 16.3399 12.3842 16.7453C12.1642 17.1508 12.0607 17.6092 12.0851 18.0699C10.7167 18.4235 9.28077 18.4229 7.91263 18.0682C7.93684 17.6075 7.83313 17.1492 7.61298 16.7438C7.39283 16.3385 7.06483 16.002 6.66527 15.7715C6.26571 15.541 5.81018 15.4255 5.34907 15.4379C4.88796 15.4503 4.43926 15.5899 4.05263 15.8415C3.56012 15.339 3.13313 14.7762 2.7818 14.1665V14.1665ZM7.49846 14.3299C8.38649 14.842 9.05417 15.664 9.37346 16.6382C9.7893 16.6774 10.2068 16.6782 10.6226 16.639C10.9421 15.6647 11.6101 14.8427 12.4985 14.3307C13.3861 13.8171 14.4322 13.6494 15.436 13.8599C15.6776 13.5199 15.886 13.1574 16.0593 12.7782C15.3755 12.0144 14.9977 11.025 14.9985 9.99985C14.9985 8.94985 15.3901 7.96902 16.0593 7.22152C15.8847 6.84248 15.6755 6.48038 15.4343 6.13985C14.4312 6.35011 13.3858 6.18275 12.4985 5.66985C11.6104 5.15766 10.9428 4.33567 10.6235 3.36152C10.2076 3.32235 9.79013 3.32152 9.3743 3.36069C9.05479 4.33497 8.3868 5.15698 7.49846 5.66902C6.61078 6.18261 5.56469 6.35028 4.56096 6.13985C4.31977 6.48009 4.11107 6.84224 3.93763 7.22152C4.62144 7.98532 4.9992 8.97468 4.99846 9.99985C4.99846 11.0499 4.6068 12.0307 3.93763 12.7782C4.11219 13.1572 4.32141 13.5193 4.56263 13.8599C5.56573 13.6496 6.61114 13.817 7.49846 14.3299ZM9.99846 12.4999C9.33542 12.4999 8.69954 12.2365 8.2307 11.7676C7.76186 11.2988 7.49846 10.6629 7.49846 9.99985C7.49846 9.33681 7.76186 8.70093 8.2307 8.23208C8.69954 7.76324 9.33542 7.49985 9.99846 7.49985C10.6615 7.49985 11.2974 7.76324 11.7662 8.23208C12.2351 8.70093 12.4985 9.33681 12.4985 9.99985C12.4985 10.6629 12.2351 11.2988 11.7662 11.7676C11.2974 12.2365 10.6615 12.4999 9.99846 12.4999ZM9.99846 10.8332C10.2195 10.8332 10.4314 10.7454 10.5877 10.5891C10.744 10.4328 10.8318 10.2209 10.8318 9.99985C10.8318 9.77884 10.744 9.56688 10.5877 9.4106C10.4314 9.25432 10.2195 9.16652 9.99846 9.16652C9.77745 9.16652 9.56549 9.25432 9.40921 9.4106C9.25293 9.56688 9.16513 9.77884 9.16513 9.99985C9.16513 10.2209 9.25293 10.4328 9.40921 10.5891C9.56549 10.7454 9.77745 10.8332 9.99846 10.8332V10.8332Z" fill="#77809C"/>
</svg>
