<svg id="Layer_1" data-name="Layer 1" xmlns="http://www.w3.org/2000/svg" viewBox="0 0 20 20"><defs><style>.cls-1{fill:#77809c;}</style></defs><path class="cls-1" d="M16,9.8H12.11l-.08,0c-.37-.14-.71-.25-1-.33L9.84,9.11a7,7,0,0,1-.71-.22,3.61,3.61,0,0,1-.74-.36A1.9,1.9,0,0,1,7.81,8a1.39,1.39,0,0,1-.22-.8,1.65,1.65,0,0,1,.32-1,2.13,2.13,0,0,1,.9-.69,3.29,3.29,0,0,1,1.35-.25,3.15,3.15,0,0,1,1.78.48,1.77,1.77,0,0,1,.83,1.34h1.37a2.79,2.79,0,0,0-.55-1.58A3.48,3.48,0,0,0,12.2,4.4a4.7,4.7,0,0,0-2-.4,4.85,4.85,0,0,0-2,.41A3.56,3.56,0,0,0,6.75,5.55a2.81,2.81,0,0,0-.52,1.7A2.45,2.45,0,0,0,7,9.15,4.35,4.35,0,0,0,8,9.8H4v1h6.94a6.42,6.42,0,0,1,.81.28,2.39,2.39,0,0,1,.86.59,1.39,1.39,0,0,1,.32.94,1.76,1.76,0,0,1-.37,1.12,2.54,2.54,0,0,1-1,.74,3.9,3.9,0,0,1-1.45.26,4,4,0,0,1-1.3-.21,2.44,2.44,0,0,1-1-.63,1.85,1.85,0,0,1-.45-1.09H5.91a3.19,3.19,0,0,0,.58,1.67A3.49,3.49,0,0,0,7.93,15.6a5.3,5.3,0,0,0,2.16.4,5.27,5.27,0,0,0,2.28-.45,3.37,3.37,0,0,0,1.43-1.21,3,3,0,0,0,.49-1.7A2.66,2.66,0,0,0,14,11.26a3.22,3.22,0,0,0-.34-.46H16Z"/></svg>